<svg width="18" height="18" viewBox="0 0 18 18" fill="none" xmlns="http://www.w3.org/2000/svg">
<g clip-path="url(#clip0)">
<path d="M5.33072 3.19995C5.87013 3.19995 6.36201 3.24748 6.80635 3.34255C7.2507 3.43761 7.63167 3.59389 7.94855 3.81066C8.26614 4.02743 8.51172 4.3155 8.686 4.67559C8.86029 5.03567 8.94815 5.4793 8.94815 6.00863C8.94815 6.57972 8.81852 7.05576 8.55925 7.43673C8.29999 7.8177 7.91686 8.12953 7.40914 8.37295C8.10699 8.57388 8.62839 8.92605 8.97191 9.42801C9.31544 9.93069 9.48756 10.5364 9.48756 11.245C9.48756 11.8161 9.37665 12.3109 9.15412 12.7286C8.9323 13.1463 8.63343 13.4876 8.2575 13.7519C7.88229 14.0162 7.45379 14.2121 6.97199 14.3389C6.48804 14.4663 5.98896 14.5297 5.48844 14.529H0V3.19995H5.33072ZM5.01384 7.78529C5.45819 7.78529 5.8226 7.67943 6.10851 7.4677C6.39441 7.25596 6.53701 6.91244 6.53701 6.43641C6.53701 6.1721 6.48948 5.95533 6.39441 5.78609C6.29863 5.61685 6.17188 5.48434 6.01344 5.38928C5.85501 5.29421 5.67208 5.22796 5.46611 5.19123C5.25366 5.15378 5.03905 5.13506 4.82372 5.13578H2.49108V7.78529H5.01384ZM5.15644 12.5924C5.39986 12.5924 5.63247 12.5687 5.85429 12.5211C6.0761 12.4736 6.27199 12.3944 6.44123 12.2828C6.61047 12.1719 6.74514 12.0213 6.84596 11.8305C6.94607 11.6404 6.99648 11.397 6.99648 11.101C6.99648 10.5198 6.83228 10.1042 6.5046 9.85579C6.17692 9.60733 5.74266 9.48274 5.20325 9.48274H2.49108V12.5924H5.15644ZM12.6232 12.3548C12.9617 12.6832 13.4485 12.8467 14.083 12.8467C14.5374 12.8467 14.9292 12.7329 15.2569 12.5053C15.5845 12.2785 15.7855 12.0372 15.8596 11.7837H17.843C17.5261 12.7674 17.0393 13.4711 16.3832 13.8938C15.7271 14.3173 14.9335 14.5283 14.003 14.5283C13.3578 14.5283 12.7759 14.4253 12.2581 14.2186C11.7395 14.0126 11.301 13.7188 10.9416 13.3378C10.5822 12.9569 10.3042 12.5024 10.1083 11.9738C9.91246 11.4452 9.81524 10.8633 9.81524 10.2288C9.81524 9.61525 9.91534 9.04415 10.117 8.51555C10.3179 7.98694 10.6031 7.52963 10.974 7.1429C11.3442 6.75689 11.7856 6.45297 12.2991 6.23044C12.8119 6.00791 13.3808 5.897 14.0045 5.897C14.7023 5.897 15.3109 6.03167 15.8294 6.30174C16.3472 6.57108 16.7735 6.93405 17.107 7.38848C17.4404 7.84363 17.6802 8.36143 17.8293 8.94333C17.9777 9.52523 18.0302 10.1331 17.9878 10.7682H12.0694C12.0996 11.4978 12.284 12.0271 12.6232 12.3548ZM15.169 8.03951C14.8997 7.74352 14.4892 7.59517 13.9397 7.59517C13.5803 7.59517 13.2814 7.65638 13.0431 7.77737C12.8047 7.89908 12.6145 8.0496 12.472 8.22964C12.3294 8.40968 12.2285 8.59981 12.1709 8.80074C12.1126 9.00166 12.078 9.18171 12.0679 9.34015H15.7329C15.627 8.76905 15.4391 8.3355 15.169 8.03951ZM11.6826 3.77537H16.2622V5.04503H11.6826V3.77537Z" fill="black"/>
</g>
<defs>
<clipPath id="clip0">
<rect width="18" height="18" fill="white"/>
</clipPath>
</defs>
</svg>
