<svg width="36" height="36" viewBox="0 0 36 36" fill="none" xmlns="http://www.w3.org/2000/svg">
<path fill-rule="evenodd" clip-rule="evenodd" d="M8.0954 6.92307C8.0954 4.65527 9.97943 2.76923 12.3557 2.76923H16.6153V11.0769H12.3557C9.97943 11.0769 8.0954 9.19088 8.0954 6.92307ZM12.3557 0H16.6153H19.3851H23.6448C27.5005 0 30.6743 3.07642 30.6743 6.92307C30.6743 9.19734 29.5649 11.2024 27.8611 12.4615C29.5649 13.7207 30.6743 15.7257 30.6743 18C30.6743 21.8466 27.5005 24.923 23.6448 24.923C22.0491 24.923 20.5701 24.3961 19.3846 23.5057V24.9231V29.0769C19.3846 32.9236 16.2109 36 12.3552 36C8.49946 36 5.32568 32.9236 5.32568 29.0769C5.32568 26.8026 6.4351 24.7976 8.13894 23.5385C6.4351 22.2793 5.32568 20.2743 5.32568 18C5.32568 15.7256 6.4352 13.7205 8.13917 12.4614C6.43548 11.2022 5.32617 9.19723 5.32617 6.92307C5.32617 3.07642 8.49994 0 12.3557 0ZM16.6154 17.9684C16.6154 17.9789 16.6153 17.9894 16.6153 18C16.6153 18.0105 16.6154 18.0211 16.6154 18.0316V22.1538H12.3552C9.97894 22.1538 8.09491 20.2678 8.09491 18C8.09491 15.7322 9.97894 13.8462 12.3552 13.8462H16.6154V17.9684ZM19.3846 18.0242C19.398 20.2812 21.2771 22.1538 23.6448 22.1538C26.0211 22.1538 27.9051 20.2678 27.9051 18C27.9051 15.7322 26.0211 13.8462 23.6448 13.8462C21.2771 13.8462 19.398 15.7188 19.3846 17.9758V18.0242ZM23.6448 2.76923H19.3851V11.0769H23.6448C26.0211 11.0769 27.9051 9.19088 27.9051 6.92307C27.9051 4.65527 26.0211 2.76923 23.6448 2.76923ZM12.3552 24.9231C9.97894 24.9231 8.09491 26.8091 8.09491 29.0769C8.09491 31.3447 9.97894 33.2308 12.3552 33.2308C14.7314 33.2308 16.6154 31.3447 16.6154 29.0769V24.9231H12.3552Z" fill="black"/>
</svg>
