<svg width="32" height="32" viewBox="0 0 32 32" fill="none" xmlns="http://www.w3.org/2000/svg">
<path d="M21.238 16.3691C21.238 19.3344 18.8288 21.7383 15.857 21.7383C12.8851 21.7383 10.476 19.3344 10.476 16.3691C10.476 13.4038 12.8851 11 15.857 11C18.8288 11 21.238 13.4038 21.238 16.3691Z" fill="black"/>
<path d="M21.8959 11.8206C21.8959 11.5487 22.1169 11.3282 22.3894 11.3282H31.5065C31.7791 11.3282 32 11.5487 32 11.8206V20.8942C32 21.1661 31.7791 21.3866 31.5065 21.3866H22.3894C22.1169 21.3866 21.8959 21.1661 21.8959 20.8942V11.8206Z" fill="black"/>
<path d="M5.63287 11.4143C5.56919 11.4519 5.51698 11.5421 5.41255 11.7226L0.157434 20.8046C0.0530047 20.9851 0.000790176 21.0754 1.55319e-05 21.1492C-0.00106152 21.2518 0.0539455 21.3468 0.143552 21.3972C0.208 21.4335 0.312429 21.4335 0.521287 21.4335H11.0315C11.2404 21.4335 11.3448 21.4335 11.4093 21.3972C11.4989 21.3468 11.5539 21.2518 11.5528 21.1492C11.552 21.0754 11.4998 20.9851 11.3954 20.8046L6.14026 11.7226C6.03583 11.5421 5.98361 11.4519 5.91994 11.4143C5.83141 11.3621 5.72139 11.3621 5.63287 11.4143Z" fill="black"/>
</svg>
