<svg width="36" height="36" viewBox="0 0 36 36" fill="none" xmlns="http://www.w3.org/2000/svg">
<path fill-rule="evenodd" clip-rule="evenodd" d="M18 0C8.055 0 0 8.055 0 18C0 25.965 5.1525 32.6925 12.3075 35.0775C13.2075 35.235 13.545 34.695 13.545 34.2225C13.545 33.795 13.5225 32.3775 13.5225 30.87C9 31.7025 7.83 29.7675 7.47 28.755C7.2675 28.2375 6.39 26.64 5.625 26.2125C4.995 25.875 4.095 25.0425 5.6025 25.02C7.02 24.9975 8.0325 26.325 8.37 26.865C9.99 29.5875 12.5775 28.8225 13.6125 28.35C13.77 27.18 14.2425 26.3925 14.76 25.9425C10.755 25.4925 6.57 23.94 6.57 17.055C6.57 15.0975 7.2675 13.4775 8.415 12.2175C8.235 11.7675 7.605 9.9225 8.595 7.4475C8.595 7.4475 10.1025 6.975 13.545 9.2925C14.985 8.8875 16.515 8.685 18.045 8.685C19.575 8.685 21.105 8.8875 22.545 9.2925C25.9875 6.9525 27.495 7.4475 27.495 7.4475C28.485 9.9225 27.855 11.7675 27.675 12.2175C28.8225 13.4775 29.52 15.075 29.52 17.055C29.52 23.9625 25.3125 25.4925 21.3075 25.9425C21.96 26.505 22.5225 27.585 22.5225 29.2725C22.5225 31.68 22.5 33.615 22.5 34.2225C22.5 34.695 22.8375 35.2575 23.7375 35.0775C30.8475 32.6925 36 25.9425 36 18C36 8.055 27.945 0 18 0Z" fill="black"/>
</svg>
