<svg width="24" height="24" viewBox="0 0 24 24" fill="none" xmlns="http://www.w3.org/2000/svg">
<g clip-path="url(#clip0_360_7079)">
<path fill-rule="evenodd" clip-rule="evenodd" d="M3.16973 20.4832C3.16973 18.4455 4.15084 16.106 6.264 13.2381C6.38051 13.075 6.49522 12.9173 6.60757 12.7652C7.22302 11.9324 7.76784 11.2698 8.15075 10.8231C8.80589 10.086 9.52766 9.41566 10.304 8.82398C10.9586 8.32509 11.6521 7.88215 12.3771 7.50238C12.8299 7.35144 13.2072 7.2005 13.2072 7.2005C17.2826 5.99298 21.6599 8.10614 23.2447 12.106C24.6787 15.0494 23.9994 18.521 21.8108 21.0115C20.9806 21.9171 19.9995 22.5964 18.8675 23.0492C17.509 23.502 16.0751 23.7284 14.6412 23.653H13.5846C12.1507 23.5775 10.6413 23.4265 9.20733 23.2001C8.52818 23.0492 8.15058 22.9737 7.39605 22.8228C6.49041 22.5964 5.58477 22.37 4.67913 21.9926C3.9999 21.6907 3.16973 21.2379 3.16973 20.4832ZM7.89147 14.4006C8.59847 13.4108 9.23438 12.6327 9.65734 12.1386C10.6734 10.9985 11.8665 10.0491 13.1727 9.34443C13.3635 9.2787 13.5338 9.21641 13.6642 9.1675C13.7403 9.13895 13.8041 9.11449 13.8519 9.09596C16.9115 8.2317 20.1914 9.82945 21.3854 12.8428L21.4134 12.9136L21.4468 12.982C22.4767 15.096 22.0439 17.7051 20.3224 19.6754C19.7098 20.3395 19 20.8332 18.1778 21.1707C17.0455 21.5412 15.8821 21.7155 14.7463 21.6557L14.6938 21.653H13.6378C12.3025 21.581 10.9038 21.4408 9.57936 21.234C8.93002 21.0902 8.53892 21.0118 7.83501 20.871C6.93981 20.647 6.19647 20.4558 5.47005 20.1555C5.36559 20.1087 5.27388 20.0649 5.19327 20.0226C5.32883 18.6668 6.06797 16.8757 7.87412 14.4245L7.88288 14.4126L7.89147 14.4006Z" fill="black"/>
<path fill-rule="evenodd" clip-rule="evenodd" d="M7.23902 10.0416C6.72364 10.5234 6.08964 10.88 5.38558 11.0627C5.03933 11.1526 4.67614 11.2004 4.30179 11.2004C1.92598 11.2004 0 9.27444 0 6.89863C0 4.52281 1.92598 2.59684 4.30179 2.59684C4.96366 2.59684 5.59062 2.74632 6.15076 3.01336C6.17565 3.02522 6.20041 3.03732 6.22504 3.04965C6.70174 3.28831 7.12793 3.61293 7.48329 4.00317C7.88662 4.44609 8.19872 4.97355 8.38986 5.55585C8.52856 5.97836 8.60358 6.42973 8.60358 6.89863C8.60358 6.92229 8.60338 6.94591 8.603 6.96949C8.5991 7.21095 8.5753 7.44758 8.53318 7.67781C8.36525 8.59566 7.90604 9.41174 7.25485 10.0267L7.23902 10.0416ZM6.60358 6.89863C6.60358 8.16987 5.57303 9.20041 4.30179 9.20041C3.03055 9.20041 2 8.16987 2 6.89863C2 5.62738 3.03055 4.59684 4.30179 4.59684C5.57303 4.59684 6.60358 5.62738 6.60358 6.89863Z" fill="black"/>
<path fill-rule="evenodd" clip-rule="evenodd" d="M8.15076 2.89871C8.15076 2.5913 8.20279 2.29776 8.29867 2.02628C8.65002 1.03142 9.59022 0.332733 10.7167 0.332733C12.1507 0.332733 13.2827 1.46478 13.2827 2.89871C13.2827 4.33264 12.2261 5.46469 10.7922 5.46469C10.6729 5.46469 10.5537 5.45715 10.4344 5.44207C10.1763 5.40944 9.91824 5.34151 9.66016 5.23828C9.43375 4.33264 8.90546 3.57794 8.15076 3.04965V2.89871ZM10.7833 3.57657C11.1759 3.57657 11.4942 3.25831 11.4942 2.86571C11.4942 2.47311 11.1759 2.15485 10.7833 2.15485C10.3907 2.15485 10.0724 2.47311 10.0724 2.86571C10.0724 3.25831 10.3907 3.57657 10.7833 3.57657Z" fill="black"/>
</g>
<defs>
<clipPath id="clip0_360_7079">
<rect width="24" height="24" fill="white"/>
</clipPath>
</defs>
</svg>
