<svg width="18" height="18" viewBox="0 0 18 18" fill="none" xmlns="http://www.w3.org/2000/svg">
<g clip-path="url(#clip0)">
<path d="M9 0C11.448 0 11.754 8.3819e-09 12.708 0.054C13.662 0.09 14.328 0.252 14.904 0.468C15.48 0.702 15.984 1.008 16.488 1.512C16.992 1.998 17.298 2.502 17.532 3.096C17.748 3.672 17.91 4.32 17.946 5.292C17.982 6.246 18 6.552 18 9C18 11.448 17.982 11.754 17.946 12.708C17.91 13.662 17.748 14.31 17.532 14.886C17.298 15.48 16.992 15.984 16.488 16.488C15.984 16.992 15.48 17.298 14.904 17.532C14.328 17.748 13.662 17.892 12.708 17.946C11.754 17.982 11.448 18 9 18C6.552 18 6.246 17.982 5.292 17.946C4.338 17.892 3.672 17.748 3.114 17.532C2.52 17.298 2.016 16.992 1.512 16.488C1.008 15.984 0.702 15.48 0.468 14.886C0.252 14.31 0.108 13.662 0.054 12.708C0.018 11.754 0 11.448 0 9C0 6.552 0.018 6.246 0.054 5.292C0.09 4.32 0.252 3.672 0.468 3.096C0.702 2.502 1.008 1.998 1.512 1.512C2.016 1.008 2.52 0.702 3.114 0.468C3.672 0.252 4.338 0.09 5.292 0.054C6.246 8.3819e-09 6.552 0 9 0ZM8.19 1.62C6.516 1.62 6.192 1.62 5.364 1.674C4.482 1.71 4.014 1.854 3.69 1.98C3.276 2.142 2.97 2.34 2.664 2.646C2.358 2.952 2.142 3.258 1.98 3.69C1.854 3.996 1.71 4.482 1.674 5.364C1.638 6.3 1.62 6.588 1.62 9C1.62 11.394 1.638 11.682 1.674 12.636C1.71 13.5 1.854 13.986 1.98 14.292C2.142 14.724 2.34 15.012 2.664 15.336C2.988 15.66 3.276 15.84 3.69 16.002C4.014 16.128 4.482 16.272 5.364 16.326C6.318 16.362 6.606 16.38 9 16.38C11.412 16.38 11.682 16.362 12.636 16.326C13.518 16.272 13.986 16.128 14.31 16.002C14.724 15.84 15.03 15.642 15.336 15.336C15.66 15.03 15.858 14.724 16.02 14.292C16.146 13.986 16.29 13.5 16.326 12.636C16.362 11.682 16.38 11.394 16.38 9C16.38 6.588 16.362 6.3 16.326 5.364C16.29 4.482 16.146 3.996 16.02 3.69C15.858 3.276 15.66 2.97 15.336 2.646C15.03 2.34 14.724 2.142 14.31 1.98C13.986 1.854 13.518 1.71 12.636 1.674C11.682 1.62 11.412 1.62 9 1.62C8.694 1.62 8.442 1.62 8.19 1.62ZM13.806 3.114C14.4 3.114 14.886 3.6 14.886 4.194C14.886 4.788 14.4 5.274 13.806 5.274C13.212 5.274 12.726 4.788 12.726 4.194C12.726 3.6 13.212 3.114 13.806 3.114ZM9 4.374C11.556 4.374 13.626 6.444 13.626 9C13.626 11.556 11.556 13.626 9 13.626C6.444 13.626 4.374 11.556 4.374 9C4.374 6.444 6.444 4.374 9 4.374ZM9 5.994C7.344 5.994 5.994 7.344 5.994 9C5.994 10.656 7.344 11.988 9 11.988C10.656 11.988 12.006 10.656 12.006 9C12.006 7.344 10.656 5.994 9 5.994Z" fill="black"/>
</g>
<defs>
<clipPath id="clip0">
<rect width="18" height="18" fill="white"/>
</clipPath>
</defs>
</svg>
