<svg width="24" height="24" viewBox="0 0 24 24" fill="none" xmlns="http://www.w3.org/2000/svg">
<g clip-path="url(#clip0)">
<path d="M14.7841 3.888C13.9441 4.968 12.5041 5.808 11.1121 5.76C10.8481 4.368 11.4961 2.928 12.3121 1.968C13.1761 0.912 14.6641 0.072 15.9601 0C16.1761 1.464 15.5761 2.88 14.7841 3.888ZM21.6961 17.592C21.1441 18.84 20.8801 19.416 20.1601 20.52C19.1521 22.056 17.7361 23.976 15.9601 24C14.4001 24 14.0161 22.968 11.8801 22.992C9.76812 22.992 9.31212 24.024 7.75212 24C6.00012 23.976 4.65612 22.248 3.64812 20.712C0.840122 16.392 0.552122 11.328 2.28012 8.64C3.50412 6.744 5.44812 5.616 7.29612 5.616C9.14412 5.616 10.3201 6.648 11.8561 6.648C13.3681 6.648 14.2801 5.616 16.4161 5.616C18.0481 5.616 19.7761 6.504 21.0001 8.04C16.9681 10.272 17.6401 16.056 21.6961 17.592Z" fill="black"/>
</g>
<defs>
<clipPath id="clip0">
<path d="M0 0H24V24H0V0Z" fill="white"/>
</clipPath>
</defs>
</svg>
