<svg width="24" height="24" viewBox="0 0 24 24" fill="none" xmlns="http://www.w3.org/2000/svg">
<g clip-path="url(#clip0_1854_12049)">
<path fill-rule="evenodd" clip-rule="evenodd" d="M16.4557 8.9469C14.9114 8.9469 13.4304 9.56343 12.3384 10.6608C11.2464 11.7583 10.6329 13.2467 10.6329 14.7987V21.7699H13.3671V14.7987C13.3671 13.9754 13.6925 13.1859 14.2717 12.6038C14.8509 12.0217 15.6365 11.6947 16.4557 11.6947C17.2748 11.6947 18.0604 12.0217 18.6397 12.6038C19.2189 13.1859 19.5443 13.9754 19.5443 14.7987V21.7699H22.2785V14.7987C22.2785 13.2467 21.665 11.7583 20.573 10.6608C19.481 9.56343 18 8.9469 16.4557 8.9469ZM16.4557 7.21681C14.4548 7.21681 12.5359 8.01562 11.1211 9.43749C9.70624 10.8594 8.91139 12.7878 8.91139 14.7987V22.635C8.91139 23.1127 9.29677 23.5 9.77215 23.5H14.2278C14.7032 23.5 15.0886 23.1127 15.0886 22.635V14.7987C15.0886 14.4343 15.2326 14.0848 15.489 13.8272C15.7454 13.5695 16.0931 13.4248 16.4557 13.4248C16.8183 13.4248 17.166 13.5695 17.4224 13.8272C17.6788 14.0848 17.8228 14.4343 17.8228 14.7987V22.635C17.8228 23.1127 18.2082 23.5 18.6835 23.5H23.1392C23.6146 23.5 24 23.1127 24 22.635V14.7987C24 12.7878 23.2052 10.8594 21.7903 9.43749C20.3755 8.01562 18.4566 7.21681 16.4557 7.21681Z" fill="black"/>
<path fill-rule="evenodd" clip-rule="evenodd" d="M0 9.20133C0 8.72358 0.385375 8.33628 0.86076 8.33628H5.31646C5.79184 8.33628 6.17722 8.72358 6.17722 9.20133V22.635C6.17722 23.1127 5.79184 23.5 5.31646 23.5H0.86076C0.385375 23.5 0 23.1127 0 22.635V9.20133ZM1.72152 10.0664V21.7699H4.4557V10.0664H1.72152Z" fill="black"/>
<path fill-rule="evenodd" clip-rule="evenodd" d="M3.08861 2.23009C2.33359 2.23009 1.72152 2.8452 1.72152 3.60398C1.72152 4.36276 2.33359 4.97788 3.08861 4.97788C3.84363 4.97788 4.4557 4.36276 4.4557 3.60398C4.4557 2.8452 3.84363 2.23009 3.08861 2.23009ZM0 3.60398C0 1.8897 1.38282 0.5 3.08861 0.5C4.7944 0.5 6.17722 1.8897 6.17722 3.60398C6.17722 5.31826 4.7944 6.70796 3.08861 6.70796C1.38282 6.70796 0 5.31826 0 3.60398Z" fill="black"/>
</g>
<defs>
<clipPath id="clip0_1854_12049">
<rect width="24" height="24" fill="white"/>
</clipPath>
</defs>
</svg>
