<svg width="18" height="18" viewBox="0 0 18 18" fill="none" xmlns="http://www.w3.org/2000/svg">
<g clip-path="url(#clip0)">
<path d="M4.0957 17.1973H0.234375V5.58984H4.10156L4.0957 17.1973ZM3.75 3.43945C3.3457 3.82617 2.81836 4.01953 2.16211 4.01953H2.14453C1.51172 4.01953 0.996094 3.82617 0.597656 3.43945C0.199219 3.05273 0 2.57812 0 2.00977C0 1.42969 0.205078 0.949219 0.609375 0.568359C1.01953 0.1875 1.54687 0 2.19141 0C2.83594 0 3.35742 0.1875 3.75 0.568359C4.14258 0.949219 4.3418 1.42969 4.35352 2.00977C4.34766 2.57812 4.14844 3.05273 3.75 3.43945ZM17.5098 17.1973H13.6426V10.9922C13.6426 9.24023 12.998 8.36719 11.7031 8.36719C11.2109 8.36719 10.8008 8.50195 10.4668 8.77734C10.1328 9.05273 9.88086 9.38086 9.7168 9.77344C9.64062 9.97266 9.59961 10.2891 9.59961 10.7109V17.2031H5.73242C5.76758 10.2012 5.76758 6.32813 5.73242 5.5957H9.59961V7.23633C10.4141 5.96484 11.5684 5.33203 13.0625 5.33203C14.3984 5.33203 15.4766 5.77148 16.291 6.65625C17.1055 7.53516 17.5098 8.83594 17.5098 10.5527V17.1973Z" fill="black"/>
</g>
<defs>
<clipPath id="clip0">
<rect width="18" height="17.1973" fill="white"/>
</clipPath>
</defs>
</svg>
