<svg width="24" height="24" viewBox="0 0 24 24" fill="none" xmlns="http://www.w3.org/2000/svg">
<g clip-path="url(#clip0_360_7054)">
<path fill-rule="evenodd" clip-rule="evenodd" d="M9.68061 18.4163C10.5377 18.5305 11.4021 18.5877 12.2682 18.5875C12.6402 18.5875 13.0112 18.5875 13.3833 18.5777C14.939 18.5341 16.5788 18.4544 18.1095 18.1556C18.1173 18.154 18.1251 18.1525 18.1328 18.151C18.163 18.1451 18.1926 18.1394 18.2186 18.1316C20.633 17.6679 22.9306 16.2128 23.1641 12.528C23.1729 12.383 23.1947 11.0085 23.1947 10.858C23.1949 10.7561 23.2016 10.5506 23.2106 10.2719C23.247 9.15169 23.3218 6.84715 23.1707 5.31338C22.8237 2.73468 20.5762 0.702487 17.912 0.308701C17.4625 0.242161 15.7595 0 11.8144 0H11.7849C8.30607 0 7.23612 0.188201 6.72352 0.278366C6.65466 0.290478 6.59586 0.300821 6.54262 0.308701C3.95257 0.691577 1.58727 2.51761 1.0134 5.12684C0.737375 6.41184 0.707918 7.83644 0.759195 9.14322C0.779195 9.65597 0.794785 10.1685 0.810366 10.6807C0.851733 12.0406 0.893043 13.3987 1.01667 14.7544C1.13434 15.9942 1.33959 17.224 1.63091 18.4348C2.17642 20.671 4.38461 22.5319 6.54809 23.2911C8.86438 24.0829 11.3554 24.2143 13.7422 23.6707C14.0047 23.6096 14.2641 23.5388 14.5201 23.458C14.5451 23.45 14.5704 23.442 14.5958 23.434C15.0353 23.2947 15.5234 23.1401 15.9439 22.9141C16.0124 22.8773 16.0792 22.8385 16.1436 22.7976C16.1903 22.768 16.2358 22.7373 16.2799 22.7054C16.2867 22.7003 16.2923 22.6937 16.2963 22.6862C16.3003 22.6786 16.3025 22.6702 16.3028 22.6617V20.8532C16.3026 20.8452 16.3008 20.8374 16.2972 20.8302C16.2937 20.8231 16.2886 20.8168 16.2823 20.8119C16.276 20.807 16.2687 20.8035 16.2609 20.8018C16.2532 20.8001 16.2451 20.8001 16.2373 20.8019C16.164 20.8194 16.0906 20.8365 16.0171 20.8532C16.0086 20.8551 16.0001 20.857 15.9916 20.8589C15.4409 20.9831 14.8856 21.0838 14.3271 21.1607C14.319 21.1618 14.3109 21.1629 14.3028 21.164C13.3975 21.2876 12.4841 21.349 11.5689 21.3473C9.75696 21.3473 8.83208 20.7715 8.35619 20.2306C8.27997 20.144 8.21526 20.0582 8.16028 19.9759C8.10822 19.8979 8.06487 19.823 8.02871 19.7533C8.02406 19.7443 8.01953 19.7355 8.01512 19.7267C7.97844 19.6537 7.94973 19.5869 7.92713 19.5289C7.77718 19.1154 7.67622 18.686 7.62621 18.2493C7.62583 18.246 7.62545 18.2427 7.62508 18.2393C7.61968 18.1915 7.6149 18.1436 7.61074 18.0956C7.61029 18.0874 7.61181 18.0791 7.61513 18.0716C7.61845 18.0641 7.62351 18.0574 7.6299 18.0522C7.63629 18.047 7.64378 18.0434 7.65183 18.0416C7.65988 18.0399 7.66822 18.0401 7.6762 18.0421C7.72529 18.054 7.77442 18.0656 7.82358 18.0771C7.8317 18.079 7.83981 18.0809 7.84793 18.0827C8.42248 18.2159 9.00234 18.3228 9.58572 18.4034C9.61734 18.4078 9.64897 18.4121 9.68061 18.4163ZM8.14949 16.0989C9.49805 16.4239 10.8804 16.5879 12.2677 16.5875H12.2682C12.6439 16.5875 12.988 16.5874 13.3287 16.5784C14.8702 16.5352 16.3613 16.4577 17.7126 16.1953L17.7412 16.1867L17.8414 16.1674C18.8018 15.983 19.5739 15.6311 20.1133 15.1054C20.6173 14.6143 21.0767 13.8197 21.1676 12.4095C21.1675 12.4105 21.1677 12.4026 21.1682 12.3844C21.1691 12.3522 21.1708 12.2878 21.1731 12.1839C21.1762 12.0364 21.1797 11.8495 21.183 11.6607C21.1862 11.4721 21.1892 11.2836 21.1913 11.1334C21.1924 11.0582 21.1933 10.9935 21.1939 10.9436C21.194 10.9354 21.194 10.9278 21.1941 10.9206C21.1943 10.9058 21.1944 10.893 21.1945 10.8823L21.1946 10.8638C21.1947 10.8603 21.1947 10.8585 21.1947 10.858V10.8559L21.1947 10.8538C21.195 10.6849 21.204 10.4017 21.2153 10.0441C21.2522 8.87717 21.3143 6.9175 21.184 5.54784C20.9575 3.98998 19.5202 2.56813 17.6196 2.28721L17.6191 2.28714C17.2743 2.2361 15.6696 2 11.8144 2H11.7849C9.8484 2 8.7143 2.0596 8.03272 2.12126C7.54256 2.16561 7.32072 2.20462 7.10789 2.24205C7.0214 2.25726 6.9364 2.2722 6.83549 2.28714L6.8351 2.2872C4.89914 2.57338 3.33096 3.9109 2.96771 5.55196C2.74446 6.5947 2.70895 7.8234 2.75766 9.06481L2.75768 9.06527C2.7792 9.61697 2.79548 10.1523 2.81144 10.6769C2.85207 12.0128 2.89059 13.2791 3.00807 14.5691C3.11676 15.7125 3.30608 16.8468 3.5746 17.9636C3.86387 19.1437 5.05422 20.3946 6.51359 21.1111C6.29651 20.7905 6.1555 20.4908 6.0637 20.2553L6.05506 20.2331L6.04694 20.2107C5.81996 19.5848 5.67582 18.9319 5.61823 18.2685L5.61541 18.2361L5.61365 18.2035C5.59613 17.8793 5.65585 17.5577 5.78529 17.2643L5.78603 17.2626L5.78676 17.261C5.917 16.9672 6.11504 16.7068 6.36635 16.5019C6.61132 16.3023 6.90584 16.1565 7.23032 16.0866C7.53836 16.0201 7.85262 16.0265 8.14949 16.0989Z" fill="black"/>
<path d="M18.631 7.93409V13.927H16.2561V8.11062C16.2561 6.88612 15.7458 6.26164 14.7078 6.26164C13.5668 6.26164 12.9953 7.00041 12.9953 8.45961V11.6433H10.6347V8.45961C10.6347 7.00041 10.0621 6.26164 8.9211 6.26164C7.88929 6.26164 7.37389 6.88612 7.37389 8.11062V13.927H5V7.93409C5 6.70959 5.31266 5.73681 5.93793 5.01572C6.58296 4.29632 7.42901 3.92696 8.4792 3.92696C9.69472 3.92696 10.6132 4.39428 11.2256 5.32796L11.8165 6.3198L12.4084 5.32796C13.0208 4.39428 13.9393 3.92696 15.1528 3.92696C16.202 3.92696 17.048 4.29632 17.6951 5.01572C18.3197 5.73612 18.6317 6.70893 18.631 7.93409Z" fill="black"/>
</g>
<defs>
<clipPath id="clip0_360_7054">
<rect width="24" height="24" fill="white"/>
</clipPath>
</defs>
</svg>
