<svg width="18" height="18" viewBox="0 0 18 18" fill="none" xmlns="http://www.w3.org/2000/svg">
<g clip-path="url(#clip0)">
<path d="M16.5637 3.54975L18 2.17575V1.875H13.0245L9.4785 10.701L5.44425 1.875H0.22725V2.17575L1.905 4.1955C2.0685 4.34475 2.154 4.563 2.13225 4.78275V12.72C2.184 13.0058 2.091 13.2998 1.89 13.5075L0 15.798V16.095H5.35875V15.7943L3.46875 13.5075C3.264 13.299 3.16725 13.0103 3.2085 12.72V5.8545L7.9125 16.0988H8.45925L12.504 5.8545V14.0153C12.504 14.2305 12.504 14.2748 12.363 14.4158L10.908 15.8235V16.125H17.967V15.8243L16.5645 14.451C16.4415 14.358 16.3777 14.202 16.404 14.0505V3.95025C16.3777 3.798 16.4407 3.642 16.5637 3.54975V3.54975Z" fill="black"/>
</g>
<defs>
<clipPath id="clip0">
<rect width="18" height="18" fill="white"/>
</clipPath>
</defs>
</svg>
