<svg width="24" height="24" viewBox="0 0 24 24" fill="none" xmlns="http://www.w3.org/2000/svg">
<g clip-path="url(#clip0_1854_12061)">
<path fill-rule="evenodd" clip-rule="evenodd" d="M14.4997 9.25097L10.9121 20.8755C10.8033 21.2281 10.4879 21.4762 10.1205 21.4984C9.75302 21.5206 9.4103 21.3122 9.26008 20.9752L4.18511 9.59099V17.177L6.41683 20.0695C6.62324 20.337 6.65988 20.6989 6.51129 21.0026C6.3627 21.3062 6.05477 21.4987 5.71745 21.4987H0.88426C0.546944 21.4987 0.239012 21.3062 0.090422 21.0026C-0.0581679 20.6989 -0.021528 20.337 0.184878 20.0695L2.4166 17.177V6.51766C2.4166 6.50511 2.41686 6.49263 2.41738 6.48021L0.293625 4.56873C0.0210028 4.32336 -0.0724961 3.93483 0.0585245 3.59179C0.189545 3.24876 0.517951 3.02225 0.884291 3.02225H7.61336C7.88985 3.01084 8.16047 3.13087 8.33733 3.3501C8.3899 3.41496 8.43352 3.48742 8.46628 3.56559L12.0284 11.2601L14.5334 3.14341C14.5535 3.07252 14.5822 3.00526 14.6183 2.94282C14.6659 2.86002 14.726 2.78689 14.7951 2.72513C14.9515 2.58511 15.1578 2.5 15.3839 2.5H23.117C23.4687 2.5 23.787 2.70897 23.9276 3.0322C24.0682 3.35544 24.0044 3.73148 23.7651 3.98992L21.5847 6.34485V17.6549L23.7651 20.0098C24.0044 20.2683 24.0682 20.6443 23.9276 20.9676C23.787 21.2908 23.4687 21.4998 23.117 21.4998H13.4507C13.1165 21.4998 12.8108 21.3108 12.6607 21.0115C12.5105 20.7121 12.5415 20.3534 12.7408 20.0844L14.4997 17.7098V9.25097ZM16.2682 18.003V4.27331H21.0895L20.0524 5.39346C19.9006 5.55745 19.8162 5.77295 19.8162 5.99672V18.003C19.8162 18.2268 19.9006 18.4423 20.0524 18.6063L21.0895 19.7264H15.2089L16.0938 18.5317C16.2071 18.3788 16.2682 18.1935 16.2682 18.003ZM11.1979 13.6779C11.2139 13.7125 11.2319 13.7456 11.2516 13.777L9.91663 18.1025L4.59148 6.15714C4.5409 6.04368 4.4671 5.94216 4.37487 5.85914L3.19318 4.79556H7.08593L11.1979 13.6779ZM2.68636 19.7254L3.30085 18.9289L3.91535 19.7254H2.68636Z" fill="black"/>
</g>
<defs>
<clipPath id="clip0_1854_12061">
<rect width="24" height="24" fill="white"/>
</clipPath>
</defs>
</svg>
