<svg width="32" height="32" viewBox="0 0 32 32" fill="none" xmlns="http://www.w3.org/2000/svg">
<g clip-path="url(#clip0_1199_3234)">
<path d="M32 21.6801V20.0081C32 19.8534 31.8507 19.7414 31.704 19.7841L23.808 22.0668C23.7654 22.0774 23.728 22.1014 23.6987 22.1334C22.8528 23.0678 22.1339 23.6948 21.9437 23.8607L21.9307 23.8721C21.44 24.2881 20.832 24.5148 20.192 24.5148H17.3334V21.6001H19.6054C19.664 21.6001 19.72 21.5788 19.7627 21.5414L20.056 21.2721C20.1813 21.1574 20.3307 21.0188 20.5094 20.8401C20.5244 20.8251 20.5396 20.8099 20.555 20.7945C20.649 20.7009 20.7495 20.6007 20.848 20.4908C20.9654 20.3761 21.08 20.2481 21.1867 20.1228C21.3654 19.9308 21.536 19.7307 21.7147 19.5201C21.8427 19.3814 21.96 19.2241 22.0747 19.0667C22.2027 18.9174 22.328 18.7495 22.4453 18.5895C22.4888 18.5256 22.535 18.4611 22.5823 18.3952C22.6278 18.3316 22.6742 18.2668 22.72 18.2001C22.8054 18.0721 22.8907 17.9361 22.9627 17.8081C23.1867 17.4614 23.376 17.0907 23.536 16.7201C23.6093 16.5616 23.668 16.3948 23.7249 16.2325C23.7322 16.2119 23.7394 16.1913 23.7467 16.1708C23.8107 15.9814 23.864 15.8028 23.904 15.6134C24 15.1681 24.0213 14.7254 23.9787 14.2828C23.968 14.1441 23.9573 14.0081 23.9254 13.8801V13.8588C23.9147 13.7681 23.8934 13.6668 23.864 13.5735C23.768 13.1414 23.6187 12.7094 23.4293 12.2854C23.3654 12.1281 23.2907 11.9681 23.2187 11.8214C23.048 11.5041 22.8693 11.1868 22.6667 10.8801C22.626 10.8152 22.581 10.7496 22.5361 10.684C22.5016 10.6336 22.4671 10.5833 22.4347 10.5335C22.3062 10.3353 22.1618 10.1443 22.0217 9.95899C21.9902 9.91731 21.9589 9.87591 21.928 9.83479C21.8453 9.72621 21.7548 9.61762 21.6637 9.50832C21.6138 9.44849 21.5637 9.38846 21.5147 9.32809C21.376 9.16007 21.24 9.00007 21.1014 8.84278C20.6053 8.28278 20.0854 7.77607 19.6213 7.34412C19.536 7.25876 19.4427 7.17345 19.3467 7.09074C18.9866 6.76278 18.6587 6.47744 18.384 6.25607C18.3013 6.19242 18.2271 6.12972 18.158 6.07135C18.1113 6.03193 18.067 5.99448 18.024 5.96007C17.9394 5.89707 17.8662 5.84126 17.8049 5.79459C17.7677 5.76623 17.7349 5.74124 17.7067 5.72007C17.6854 5.70409 17.6614 5.69342 17.6373 5.6854L17.3334 5.6001V3.08278C17.3334 2.67211 17.168 2.30412 16.904 2.03476C16.64 1.7654 16.272 1.6001 15.8667 1.6001C15.056 1.6001 14.4 2.26409 14.4 3.08278V4.77876L14.248 4.73607L13.8347 4.61876L13.4587 4.51476C13.4576 4.51476 13.4565 4.51431 13.4552 4.51377C13.4533 4.51302 13.4511 4.51211 13.448 4.51211H13.44L10.5866 3.73876C10.4614 3.70409 10.3547 3.8401 10.4187 3.95476L10.8747 4.79744C10.9006 4.8623 10.9335 4.92716 10.9672 4.99382C10.989 5.03677 11.0111 5.08047 11.032 5.1254C11.1067 5.27479 11.1814 5.43208 11.2534 5.58943C11.3173 5.72809 11.3813 5.86409 11.456 6.01342C11.4875 6.08375 11.5195 6.15494 11.552 6.22714C11.6711 6.49168 11.7964 6.76986 11.92 7.06946L11.921 7.07186C12.0273 7.32438 12.1336 7.57694 12.2267 7.8401C12.4827 8.50409 12.7254 9.21342 12.936 9.94144C12.9884 10.1042 13.0303 10.2617 13.0727 10.4213C13.0907 10.4892 13.1089 10.5575 13.128 10.6268L13.1573 10.7548C13.2427 11.0934 13.3173 11.4294 13.3707 11.7681C13.4134 12.0001 13.4533 12.2214 13.4747 12.4454C13.5067 12.6987 13.5387 12.9521 13.5494 13.2054C13.5707 13.4374 13.5814 13.6801 13.5814 13.9121C13.5814 14.5041 13.528 15.0748 13.4027 15.6134C13.3949 15.6422 13.3871 15.6714 13.3792 15.7008C13.344 15.832 13.3076 15.9681 13.264 16.0988C13.2245 16.239 13.1733 16.3793 13.1201 16.525C13.1015 16.5759 13.0827 16.6276 13.064 16.6801C13.0609 16.6883 13.0579 16.6966 13.0548 16.7048C13.0152 16.8116 12.9749 16.9203 12.9253 17.0268C12.6613 17.6614 12.3333 18.2934 11.9947 18.8854C11.4987 19.7627 11 20.5334 10.6507 21.0294C10.6294 21.0613 10.6087 21.0916 10.5887 21.1208C10.5636 21.1576 10.5396 21.1926 10.5174 21.2267C10.408 21.3814 10.52 21.6001 10.7093 21.6001H14.4V24.5148H10.6667C9.66402 24.5148 8.73603 23.9467 8.28799 23.0374C8.05601 22.5814 7.96534 22.0801 8.01869 21.5894C8.03201 21.4428 7.92265 21.3041 7.77332 21.3041H0.23204C0.103994 21.3041 0 21.4081 0 21.5361V21.6908C0 26.5014 3.88534 30.4001 8.68003 30.4001H22.208C24.7438 30.4001 26.1837 28.0893 27.599 25.818C27.9935 25.1849 28.3861 24.5548 28.8 23.9788C29.544 22.9441 31.3334 22.1228 31.856 21.8988C31.9413 21.8614 32 21.7761 32 21.6801Z" fill="black"/>
<path d="M2.01599 17.8695L1.90398 18.0454C1.80535 18.1975 1.91465 18.4002 2.1013 18.4002H9.04532C9.12267 18.4002 9.19465 18.3628 9.23733 18.2988C9.32801 18.1602 9.41331 18.0161 9.49066 17.8695C10.0907 16.8615 10.624 15.7708 10.8186 14.9655C11.2747 13.0082 10.3013 9.86416 9.17331 7.33612C9.09868 7.16816 8.86664 7.15212 8.76801 7.30682L2.01599 17.8695Z" fill="black"/>
</g>
<defs>
<clipPath id="clip0_1199_3234">
<rect width="32" height="32" fill="white"/>
</clipPath>
</defs>
</svg>
