<svg width="18" height="18" viewBox="0 0 18 18" fill="none" xmlns="http://www.w3.org/2000/svg">
<g clip-path="url(#clip0)">
<path d="M0 9.0009C0.0468047 6.44645 0.948695 4.31323 2.70747 2.60306C4.46625 0.89289 6.56346 0.0234023 9.0009 0C11.6256 0.0468047 13.7768 0.943294 15.4527 2.68947C17.1287 4.43564 17.9784 6.54005 18.0018 9.0009C17.955 11.532 17.0531 13.6598 15.2943 15.3825C13.5356 17.1035 11.4383 17.9766 9.0009 18C8.15662 18 7.31413 17.8704 6.46985 17.613C6.63366 17.3555 6.79748 17.0621 6.9613 16.7345C7.14852 16.3366 7.38254 15.586 7.66517 14.4842C7.73537 14.18 7.84158 13.7696 7.982 13.2529C8.14581 13.5338 8.42664 13.7912 8.82628 14.027C9.88119 14.5185 10.9937 14.4716 12.1656 13.8866C13.3843 13.1827 14.2286 12.0936 14.6967 10.6175C15.1179 9.07111 15.0657 7.63456 14.5383 6.31143C14.0108 4.9865 13.0675 4.0324 11.7084 3.44554C9.9982 2.9541 8.33303 3.0063 6.71647 3.60396C5.09991 4.20162 3.9748 5.22772 3.34113 6.68047C3.17732 7.21872 3.07831 7.75338 3.0423 8.28083C3.0063 8.80828 3.0243 9.32313 3.09451 9.82718C3.16472 10.3312 3.34113 10.7831 3.62196 11.1809C3.90279 11.5788 4.27903 11.8848 4.74707 12.0954C4.86409 12.1422 4.9577 12.1422 5.0279 12.0954C5.12151 12.0486 5.21512 11.8614 5.30873 11.5338C5.40234 11.2061 5.43834 10.9829 5.41494 10.8659C5.39154 10.8191 5.34473 10.7363 5.27453 10.6193C4.78308 9.82178 4.61746 8.9847 4.78308 8.10621C4.94689 7.22772 5.31053 6.48245 5.87219 5.87399C6.73987 5.09991 7.75338 4.67867 8.91269 4.60846C10.072 4.53825 11.0639 4.85509 11.883 5.55716C12.3276 6.07201 12.6157 6.69307 12.7435 7.42034C12.8713 8.14762 12.8731 8.84429 12.7435 9.51215C12.6139 10.18 12.3852 10.8065 12.0576 11.3933C11.4707 12.3078 10.7795 12.7759 9.9838 12.7993C9.51575 12.7759 9.13411 12.5941 8.84068 12.2538C8.54725 11.9136 8.45905 11.5212 8.57786 11.0765C8.62466 10.8191 8.76508 10.315 8.9991 9.56436C9.23312 8.81368 9.36274 8.25203 9.38614 7.87759C9.31593 6.9865 8.90549 6.52925 8.15482 6.50585C7.56796 6.57606 7.13591 6.84068 6.85329 7.29613C6.57066 7.75158 6.41944 8.27543 6.39604 8.86049C6.46625 9.54096 6.57246 10.009 6.71287 10.2664C6.45545 11.3213 6.25563 12.1656 6.11521 12.7975C6.06841 12.9613 5.93879 13.4653 5.72817 14.3096C5.51755 15.1539 5.40054 15.7984 5.37714 16.243V17.2277C3.71377 16.4536 2.39964 15.3357 1.44014 13.8704C0.480648 12.405 0 10.7813 0 9.0009Z" fill="black"/>
</g>
<defs>
<clipPath id="clip0">
<rect width="18" height="18" fill="white"/>
</clipPath>
</defs>
</svg>
