<svg width="25" height="24" viewBox="0 0 25 24" fill="none" xmlns="http://www.w3.org/2000/svg">
<path fill-rule="evenodd" clip-rule="evenodd" d="M7.54359 15.8296V16.0081H12.5334V15.8296L11.9831 15.6689C11.5062 15.5262 11.2677 15.2227 11.2677 14.7586V11.4742H11.8914C13.2 11.4742 14.2395 11.3076 15.0101 10.9744C15.7806 10.6412 16.3309 10.1949 16.6612 9.63565C17.0036 9.06445 17.1748 8.4397 17.1748 7.76141C17.1748 6.70231 16.7651 5.85146 15.9456 5.20886C15.1385 4.55436 13.8237 4.22711 12.0015 4.22711H7.54359V4.40561L7.89216 4.54841C8.13675 4.63171 8.30187 4.74476 8.38748 4.88756C8.47309 5.03036 8.51586 5.22076 8.51586 5.45876V14.8122C8.51586 15.0501 8.47309 15.2405 8.38748 15.3833C8.3141 15.5262 8.15512 15.6332 7.91047 15.7047L7.54359 15.8296ZM11.2677 11.1172H11.9647C12.5641 11.1172 13.0532 11.022 13.4324 10.8316C13.8115 10.6412 14.0928 10.308 14.2762 9.832C14.4597 9.356 14.5514 8.69555 14.5514 7.85065C14.5514 6.99385 14.4475 6.32746 14.2395 5.85146C14.0439 5.37546 13.7504 5.04821 13.359 4.86971C12.9676 4.67931 12.4784 4.58411 11.8914 4.58411H11.2677V11.1172Z" fill="black"/>
<path d="M17.4979 16.0081C17.088 16.0081 16.7407 15.8696 16.4561 15.5927C16.1715 15.3157 16.0291 14.9834 16.0291 14.5957C16.0291 14.2079 16.1715 13.8701 16.4561 13.5821C16.7407 13.294 17.088 13.15 17.4979 13.15C17.9077 13.15 18.255 13.294 18.5396 13.5821C18.8242 13.8701 18.9665 14.2079 18.9665 14.5957C18.9665 14.9834 18.8242 15.3157 18.5396 15.5927C18.255 15.8696 17.9077 16.0081 17.4979 16.0081Z" fill="black"/>
<path fill-rule="evenodd" clip-rule="evenodd" d="M6.54687 18.598L4.57751 20.5673ZM4.57751 20.5673V2.96501C4.57751 2.43205 5.00956 2 5.54252 2H19.9114C20.4443 2 20.8764 2.43205 20.8764 2.96501V16.7577C20.8764 17.2906 20.4443 17.7227 19.9114 17.7227H8.65994C7.86739 17.7227 7.10729 18.0375 6.54687 18.598M2.57751 2.96501V23.0097C2.57751 23.8902 3.64209 24.3312 4.26471 23.7085L7.96108 20.0122C8.14643 19.8268 8.39782 19.7227 8.65994 19.7227H19.9114C21.5489 19.7227 22.8764 18.3952 22.8764 16.7577V2.96501C22.8764 1.32748 21.5489 0 19.9114 0H5.54252C3.90499 0 2.57751 1.32748 2.57751 2.96501Z" fill="black"/>
</svg>
