<svg width="18" height="18" viewBox="0 0 18 18" fill="none" xmlns="http://www.w3.org/2000/svg">
<path fill-rule="evenodd" clip-rule="evenodd" d="M9 18C13.9707 18 18 13.9707 18 9C18 4.02933 13.9707 0 9 0C4.02933 0 0 4.02933 0 9C0 13.9707 4.02933 18 9 18Z" fill="black"/>
<path fill-rule="evenodd" clip-rule="evenodd" d="M6.75 5.40002V12.6H8.1V10.35H10.143C11.4997 10.314 12.6 9.21375 12.6 7.87501C12.6 6.50027 11.4997 5.40002 10.143 5.40002H6.75V5.40002ZM10.1597 9H8.1V6.75001H10.1597C10.7617 6.75001 11.25 7.25401 11.25 7.87501C11.25 8.496 10.7617 9 10.1597 9Z" fill="white"/>
</svg>
