<svg width="68" height="15" viewBox="0 0 68 15" fill="none" xmlns="http://www.w3.org/2000/svg">
<path fill-rule="evenodd" clip-rule="evenodd" d="M3.50134 13.989C4.62483 14.578 5.94465 14.8725 7.46081 14.8725H10.864V13.3509H7.55897C6.34823 13.3509 5.3011 13.1273 4.41758 12.6801C3.53407 12.2438 2.85234 11.5948 2.37241 10.7331C1.89247 9.87139 1.6525 8.81335 1.6525 7.55898V7.29719C1.6525 6.03191 1.88156 4.97387 2.33968 4.12308C2.7978 3.26138 3.44681 2.61237 4.28669 2.17607C5.13749 1.73976 6.13008 1.52161 7.26447 1.52161H7.52625C8.66064 1.52161 9.60961 1.73431 10.3731 2.15971C11.1476 2.5851 11.7366 3.19593 12.1402 3.99219C12.5438 4.78844 12.7455 5.74286 12.7455 6.85543V7.68987C12.7455 8.52975 12.6419 9.14603 12.4347 9.53871C12.2383 9.92047 11.9057 10.1114 11.4366 10.1114H11.3057C11.1421 10.1114 11.0221 10.0732 10.9458 9.99683C10.8803 9.90956 10.8476 9.78413 10.8476 9.62051V3.55043H9.21148V4.61392H8.9497C8.84062 4.40668 8.69882 4.21034 8.5243 4.02491C8.34978 3.83948 8.11526 3.69223 7.82076 3.58315C7.53716 3.46317 7.17175 3.40318 6.72454 3.40318C6.08099 3.40318 5.5138 3.58315 5.02296 3.9431C4.54302 4.29215 4.16671 4.77208 3.89402 5.38291C3.62133 5.98283 3.48498 6.66455 3.48498 7.42808V7.70623C3.48498 8.46976 3.62133 9.15694 3.89402 9.76777C4.17762 10.3677 4.57029 10.8476 5.07204 11.2076C5.5847 11.5675 6.17371 11.7475 6.83907 11.7475C7.29719 11.7475 7.66805 11.6821 7.95165 11.5512C8.24616 11.4203 8.48067 11.2512 8.65519 11.044C8.84062 10.8258 8.97696 10.6022 9.06423 10.3731H9.32601V10.4713C9.32601 10.8204 9.45145 11.0985 9.70232 11.3057C9.9532 11.5021 10.3186 11.6002 10.7985 11.6002H11.5512C12.4783 11.6002 13.1818 11.273 13.6618 10.6186C14.1526 9.9532 14.398 8.98787 14.398 7.72259V6.82271C14.398 5.43744 14.1144 4.23761 13.5473 3.2232C12.9801 2.19788 12.1838 1.40708 11.1585 0.850794C10.1332 0.283598 8.93333 0 7.55897 0H7.21539C5.75376 0 4.47757 0.289052 3.38681 0.867156C2.30696 1.44526 1.47253 2.27424 0.883517 3.35409C0.294505 4.43394 0 5.7265 0 7.23175V7.60806C0 9.12422 0.305413 10.4222 0.91624 11.5021C1.52707 12.5819 2.38877 13.4109 3.50134 13.989ZM8.63883 9.58779C8.26797 10.0459 7.77713 10.275 7.1663 10.275C6.55547 10.275 6.06463 10.0459 5.69377 9.58779C5.33382 9.11876 5.15385 8.48067 5.15385 7.67351V7.47717C5.15385 6.67001 5.33382 6.03191 5.69377 5.56288C6.06463 5.09385 6.55547 4.85934 7.1663 4.85934C7.77713 4.85934 8.26797 5.09385 8.63883 5.56288C9.02059 6.021 9.21148 6.6591 9.21148 7.47717V7.65714C9.21148 8.47521 9.02059 9.11876 8.63883 9.58779ZM58.1948 2.46663H55.8086V0.127472H58.1948V2.46663ZM54.1131 13.1318H55.8086L55.8086 3.39288H58.1948L58.1948 12.9748C58.1948 13.3516 58.1948 13.5086 58.0535 13.9482C57.8966 14.5447 57.3785 14.9372 56.1697 15H54.1131V13.1318ZM44.889 11.9901V0.309983H42.5028V11.9901H44.889ZM30.6541 8.52291H24.2971C24.6007 9.6358 25.5281 10.1079 26.6747 10.1079C27.5178 10.1079 28.1923 9.75383 28.5632 9.26484L30.3169 10.2766C29.5243 11.4232 28.2597 12.0808 26.641 12.0808C23.8081 12.0808 22.0208 10.1417 22.0208 7.62923C22.0208 5.1168 23.825 3.17767 26.4723 3.17767C28.9679 3.17767 30.7384 5.15052 30.7384 7.62923C30.7384 7.9496 30.7047 8.23626 30.6541 8.52291ZM26.4723 5.13366C25.3089 5.13366 24.5163 5.75755 24.2634 6.83671H28.5632C28.2934 5.62265 27.3829 5.13366 26.4723 5.13366ZM18.2904 3.57539C17.4113 3.57539 16.8304 3.82657 16.5792 4.26615C16.328 4.70572 16.2652 5.0511 16.2652 5.60057V11.9901H18.6515V5.50637H21.1477V3.57539H18.2904ZM48.6046 11.7711H51.5717L54.4133 3.35639H51.8229L50.8653 6.87298L50.1274 9.69881H50.0332L49.2954 6.85728L48.3377 3.35639H45.7631L48.6046 11.7711ZM38.3178 4.47424V3.49965H40.4487V11.7588H38.3178V10.7843C37.7232 11.5276 36.8312 11.9901 35.6253 11.9901C33.4284 11.9901 31.6114 10.0905 31.6114 7.62924C31.6114 5.16801 33.4284 3.26839 35.6253 3.26839C36.8312 3.26839 37.7232 3.73091 38.3178 4.47424ZM33.7423 7.62924C33.7423 9.01679 34.7168 9.95833 36.0218 9.95833C37.3433 9.95833 38.3178 9.01679 38.3178 7.62924C38.3178 6.2417 37.3433 5.30015 36.0218 5.30015C34.7168 5.30015 33.7423 6.2417 33.7423 7.62924ZM60.7622 15V13.1132H65.3935C65.7136 13.1132 65.8737 12.9417 65.8737 12.5986V10.3262H65.565C65.4735 10.5206 65.3306 10.715 65.1362 10.9094C64.9418 11.1038 64.6788 11.2639 64.3471 11.3897C64.0155 11.5155 63.5924 11.5784 63.0778 11.5784C62.4146 11.5784 61.8314 11.4297 61.3283 11.1324C60.8366 10.8236 60.4535 10.4005 60.179 9.86309C59.9046 9.32564 59.7674 8.70814 59.7674 8.0106V3.41304H61.9286V7.83907C61.9286 8.47944 62.083 8.95971 62.3917 9.27989C62.7119 9.60008 63.1636 9.76017 63.7468 9.76017C64.41 9.76017 64.9246 9.5429 65.2905 9.10837C65.6565 8.6624 65.8394 8.0449 65.8394 7.25588V3.41304H68.0007V13.0789C68.0007 13.6621 67.8291 14.1252 67.4861 14.4683C67.143 14.8228 66.6856 15 66.1139 15H60.7622Z" fill="url(#paint0_linear_1715_544)"/>
<defs>
<linearGradient id="paint0_linear_1715_544" x1="3.12353" y1="2.05378" x2="62.2265" y2="2.05379" gradientUnits="userSpaceOnUse">
<stop stop-color="#4AB1F1"/>
<stop offset="0.328125" stop-color="#566CEC"/>
<stop offset="0.65625" stop-color="#D749AF"/>
<stop offset="1" stop-color="#FF7C51"/>
</linearGradient>
</defs>
</svg>
