<svg width="112" height="32" viewBox="0 0 112 32" fill="none" xmlns="http://www.w3.org/2000/svg">
<path fill-rule="evenodd" clip-rule="evenodd" d="M85.7767 5.0329H90.9088V0H85.7767V5.0329ZM85.7766 27.98H81.1305V31.9995H86.5532C89.153 31.8644 90.2672 31.02 90.6049 29.7364C90.9088 28.7906 90.9088 28.4528 90.9088 27.6422L90.9088 7.0258H85.7767L85.7766 27.98ZM61.6498 0.392456V25.5232H56.5177V0.392456H61.6498ZM17.3613 18.0632H31.0332C31.142 17.4465 31.2145 16.8297 31.2145 16.1404C31.2145 10.8073 27.4067 6.5625 22.0395 6.5625C16.3459 6.5625 12.4656 10.7347 12.4656 16.1404C12.4656 21.5461 16.3096 25.7183 22.4022 25.7183C25.8836 25.7183 28.6035 24.3034 30.3079 21.8364L26.5364 19.6596C25.7385 20.7117 24.2879 21.4736 22.4747 21.4736C20.0087 21.4736 18.0141 20.4577 17.3613 18.0632ZM17.2888 14.4352C17.8328 12.1133 19.5372 10.771 22.0395 10.771C23.9978 10.771 25.9561 11.8231 26.5364 14.4352H17.2888ZM0.76298 8.90523C1.3032 7.95945 2.55247 7.41901 4.44325 7.41901H10.5883V11.5737H5.21982V25.524H0.0877016V11.7764C0.0877016 10.5941 0.222757 9.85102 0.76298 8.90523ZM76.0191 25.0525H69.6378L63.5265 6.94751H69.0638L71.1234 14.48L72.7103 20.5938H72.9129L74.4998 14.5138L76.5594 6.94751H82.1304L76.0191 25.0525ZM47.5154 7.25514V9.35204C46.2364 7.75271 44.318 6.75757 41.7246 6.75757C36.9997 6.75757 33.0918 10.8447 33.0918 16.1403C33.0918 21.4359 36.9997 25.5231 41.7246 25.5231C44.318 25.5231 46.2364 24.5279 47.5154 22.9286V25.0255H52.0982V7.25514H47.5154ZM42.5772 21.1516C39.7707 21.1516 37.6747 19.1257 37.6747 16.1403C37.6747 13.1549 39.7707 11.1291 42.5772 11.1291C45.4193 11.1291 47.5154 13.1549 47.5154 16.1403C47.5154 19.1257 45.4193 21.1516 42.5772 21.1516ZM96.4327 27.94V31.9996H107.942C109.172 31.9996 110.156 31.6182 110.894 30.8555C111.631 30.1174 112 29.121 112 27.8662V7.06924H107.352V15.3374C107.352 17.0351 106.959 18.3637 106.172 19.3232C105.385 20.2582 104.278 20.7256 102.852 20.7256C101.597 20.7256 100.626 20.3812 99.9373 19.6923C99.2733 19.0034 98.9412 17.97 98.9412 16.5922V7.06924H94.2931V16.9613C94.2931 18.4621 94.5882 19.7907 95.1784 20.9471C95.7687 22.1034 96.5926 23.0138 97.6501 23.6781C98.7322 24.3178 99.9865 24.6376 101.413 24.6376C102.52 24.6376 103.43 24.5023 104.143 24.2317C104.856 23.961 105.422 23.6166 105.84 23.1983C106.258 22.78 106.565 22.3618 106.762 21.9435H107.426V26.8328C107.426 27.5709 107.082 27.94 106.393 27.94H96.4327Z" fill="url(#paint0_linear_1725_911)"/>
<path d="M0 27.9804V32H78.0462V27.9804H0Z" fill="url(#paint1_linear_1725_911)"/>
<defs>
<linearGradient id="paint0_linear_1725_911" x1="6.47759" y1="4.38135" x2="102.167" y2="4.38135" gradientUnits="userSpaceOnUse">
<stop stop-color="#4AB1F1"/>
<stop offset="0.328125" stop-color="#566CEC"/>
<stop offset="0.65625" stop-color="#D749AF"/>
<stop offset="1" stop-color="#FF7C51"/>
</linearGradient>
<linearGradient id="paint1_linear_1725_911" x1="4.45607" y1="28.5308" x2="71.1885" y2="28.5308" gradientUnits="userSpaceOnUse">
<stop stop-color="#4AB1F1"/>
<stop offset="0.328125" stop-color="#566CEC"/>
<stop offset="0.65625" stop-color="#D749AF"/>
<stop offset="1" stop-color="#FF7C51"/>
</linearGradient>
</defs>
</svg>
