<svg width="112" height="32" viewBox="0 0 112 32" fill="none" xmlns="http://www.w3.org/2000/svg">
<path fill-rule="evenodd" clip-rule="evenodd" d="M85.7768 5.0329H90.909V0H85.7768V5.0329ZM85.7768 27.98H81.1307V31.9995H86.5534C89.1532 31.8644 90.2674 31.02 90.6051 29.7364C90.9089 28.7906 90.9089 28.4528 90.9089 27.6422L90.909 7.0258H85.7768L85.7768 27.98ZM61.65 0.392456V25.5232H56.5179V0.392456H61.65ZM17.3615 18.0632H31.0334C31.1422 17.4465 31.2147 16.8297 31.2147 16.1404C31.2147 10.8073 27.4069 6.5625 22.0397 6.5625C16.3461 6.5625 12.4657 10.7347 12.4657 16.1404C12.4657 21.5461 16.3098 25.7183 22.4023 25.7183C25.8838 25.7183 28.6037 24.3034 30.3081 21.8364L26.5366 19.6596C25.7387 20.7117 24.2881 21.4736 22.4749 21.4736C20.0089 21.4736 18.0143 20.4577 17.3615 18.0632ZM17.289 14.4352C17.833 12.1133 19.5374 10.771 22.0397 10.771C23.998 10.771 25.9563 11.8231 26.5366 14.4352H17.289ZM0.763169 8.90523C1.30339 7.95945 2.55266 7.41901 4.44344 7.41901H10.5885V11.5737H5.22001V25.524H0.0878906V11.7764C0.0878906 10.5941 0.222946 9.85102 0.763169 8.90523ZM76.0193 25.0525H69.638L63.5267 6.94751H69.064L71.1236 14.48L72.7105 20.5938H72.9131L74.5 14.5138L76.5596 6.94751H82.1306L76.0193 25.0525ZM47.5156 7.25514V9.35204C46.2366 7.75271 44.3182 6.75757 41.7248 6.75757C36.9998 6.75757 33.092 10.8447 33.092 16.1403C33.092 21.4359 36.9998 25.5231 41.7248 25.5231C44.3182 25.5231 46.2366 24.5279 47.5156 22.9286V25.0255H52.0984V7.25514H47.5156ZM42.5774 21.1516C39.7709 21.1516 37.6748 19.1257 37.6748 16.1403C37.6748 13.1549 39.7709 11.1291 42.5774 11.1291C45.4195 11.1291 47.5156 13.1549 47.5156 16.1403C47.5156 19.1257 45.4195 21.1516 42.5774 21.1516ZM96.4329 27.94V31.9996H107.943C109.172 31.9996 110.156 31.6182 110.894 30.8555C111.632 30.1174 112.001 29.121 112.001 27.8662V7.06924H107.352V15.3374C107.352 17.0351 106.959 18.3637 106.172 19.3232C105.385 20.2582 104.278 20.7256 102.852 20.7256C101.598 20.7256 100.626 20.3812 99.9375 19.6923C99.2734 19.0034 98.9414 17.97 98.9414 16.5922V7.06924H94.2933V16.9613C94.2933 18.4621 94.5884 19.7907 95.1786 20.9471C95.7689 22.1034 96.5928 23.0138 97.6503 23.6781C98.7324 24.3178 99.9867 24.6376 101.413 24.6376C102.52 24.6376 103.43 24.5023 104.143 24.2317C104.856 23.961 105.422 23.6166 105.84 23.1983C106.258 22.78 106.565 22.3618 106.762 21.9435H107.426V26.8328C107.426 27.5709 107.082 27.94 106.393 27.94H96.4329Z" fill="black"/>
<path fill-rule="evenodd" clip-rule="evenodd" d="M85.7768 5.0329H90.909V0H85.7768V5.0329ZM85.7768 27.98H81.1307V31.9995H86.5534C89.1532 31.8644 90.2674 31.02 90.6051 29.7364C90.9089 28.7906 90.9089 28.4528 90.9089 27.6422L90.909 7.0258H85.7768L85.7768 27.98ZM61.65 0.392456V25.5232H56.5179V0.392456H61.65ZM17.3615 18.0632H31.0334C31.1422 17.4465 31.2147 16.8297 31.2147 16.1404C31.2147 10.8073 27.4069 6.5625 22.0397 6.5625C16.3461 6.5625 12.4657 10.7347 12.4657 16.1404C12.4657 21.5461 16.3098 25.7183 22.4023 25.7183C25.8838 25.7183 28.6037 24.3034 30.3081 21.8364L26.5366 19.6596C25.7387 20.7117 24.2881 21.4736 22.4749 21.4736C20.0089 21.4736 18.0143 20.4577 17.3615 18.0632ZM17.289 14.4352C17.833 12.1133 19.5374 10.771 22.0397 10.771C23.998 10.771 25.9563 11.8231 26.5366 14.4352H17.289ZM0.763169 8.90523C1.30339 7.95945 2.55266 7.41901 4.44344 7.41901H10.5885V11.5737H5.22001V25.524H0.0878906V11.7764C0.0878906 10.5941 0.222946 9.85102 0.763169 8.90523ZM76.0193 25.0525H69.638L63.5267 6.94751H69.064L71.1236 14.48L72.7105 20.5938H72.9131L74.5 14.5138L76.5596 6.94751H82.1306L76.0193 25.0525ZM47.5156 7.25514V9.35204C46.2366 7.75271 44.3182 6.75757 41.7248 6.75757C36.9998 6.75757 33.092 10.8447 33.092 16.1403C33.092 21.4359 36.9998 25.5231 41.7248 25.5231C44.3182 25.5231 46.2366 24.5279 47.5156 22.9286V25.0255H52.0984V7.25514H47.5156ZM42.5774 21.1516C39.7709 21.1516 37.6748 19.1257 37.6748 16.1403C37.6748 13.1549 39.7709 11.1291 42.5774 11.1291C45.4195 11.1291 47.5156 13.1549 47.5156 16.1403C47.5156 19.1257 45.4195 21.1516 42.5774 21.1516ZM96.4329 27.94V31.9996H107.943C109.172 31.9996 110.156 31.6182 110.894 30.8555C111.632 30.1174 112.001 29.121 112.001 27.8662V7.06924H107.352V15.3374C107.352 17.0351 106.959 18.3637 106.172 19.3232C105.385 20.2582 104.278 20.7256 102.852 20.7256C101.598 20.7256 100.626 20.3812 99.9375 19.6923C99.2734 19.0034 98.9414 17.97 98.9414 16.5922V7.06924H94.2933V16.9613C94.2933 18.4621 94.5884 19.7907 95.1786 20.9471C95.7689 22.1034 96.5928 23.0138 97.6503 23.6781C98.7324 24.3178 99.9867 24.6376 101.413 24.6376C102.52 24.6376 103.43 24.5023 104.143 24.2317C104.856 23.961 105.422 23.6166 105.84 23.1983C106.258 22.78 106.565 22.3618 106.762 21.9435H107.426V26.8328C107.426 27.5709 107.082 27.94 106.393 27.94H96.4329Z" fill="url(#paint0_linear_1725_911)"/>
<path d="M0 27.9804V32H78.0462V27.9804H0Z" fill="black"/>
<path d="M0 27.9804V32H78.0462V27.9804H0Z" fill="url(#paint1_linear_1725_911)"/>
<defs>
<linearGradient id="paint0_linear_1725_911" x1="6.47759" y1="4.38135" x2="102.167" y2="4.38135" gradientUnits="userSpaceOnUse">
<stop stop-color="#4AB1F1"/>
<stop offset="0.328125" stop-color="#566CEC"/>
<stop offset="0.65625" stop-color="#D749AF"/>
<stop offset="1" stop-color="#FF7C51"/>
</linearGradient>
<linearGradient id="paint1_linear_1725_911" x1="4.45607" y1="28.5308" x2="71.1885" y2="28.5308" gradientUnits="userSpaceOnUse">
<stop stop-color="#4AB1F1"/>
<stop offset="0.328125" stop-color="#566CEC"/>
<stop offset="0.65625" stop-color="#D749AF"/>
<stop offset="1" stop-color="#FF7C51"/>
</linearGradient>
</defs>
</svg>
