<svg width="32" height="32" viewBox="0 0 32 32" fill="none" xmlns="http://www.w3.org/2000/svg">
<path d="M14.9683 0.616897C15.4167 -0.205632 16.5833 -0.205632 17.0318 0.616897C17.9791 2.35436 19.4219 5.0981 20.6766 7.89131C19.0427 8.05707 17.4235 8.27691 16 8.56849C14.5765 8.27691 12.9573 8.05707 11.3234 7.89132C12.5782 5.0981 14.021 2.35436 14.9683 0.616897Z" fill="black"/>
<path fill-rule="evenodd" clip-rule="evenodd" d="M9.57095 12.2842C10.0305 10.9043 10.6499 9.39068 11.3234 7.89132C8.27956 7.58253 5.18452 7.46145 3.20775 7.41397C2.27194 7.3915 1.68865 8.40286 2.176 9.20291C3.20545 10.8929 4.85771 13.5156 6.64677 16C4.85771 18.4844 3.20545 21.1071 2.176 22.7971C1.68865 23.5971 2.27194 24.6085 3.20775 24.586C5.18452 24.5385 8.27956 24.4175 11.3234 24.1087C12.5782 26.9019 14.021 29.6456 14.9683 31.3831C15.4167 32.2056 16.5833 32.2056 17.0318 31.3831C17.9791 29.6456 19.4219 26.9019 20.6766 24.1087C23.7205 24.4175 26.8155 24.5385 28.7922 24.586C29.7281 24.6085 30.3114 23.5971 29.824 22.7971C28.7946 21.1071 27.1423 18.4844 25.3532 16C27.1423 13.5156 28.7946 10.8929 29.824 9.20291C30.3114 8.40286 29.7281 7.3915 28.7923 7.41398C26.8155 7.46145 23.7205 7.58253 20.6766 7.89131C21.3502 9.39071 21.9696 10.9044 22.4291 12.2843C22.0718 11.8809 21.7194 11.5058 21.3758 11.1673C20.3656 10.0419 19.0079 9.23551 17.4718 8.91729C17.0131 8.79089 16.5196 8.67491 16 8.56849C15.4804 8.67491 14.9869 8.7909 14.5282 8.91729C12.9921 9.23552 11.6345 10.0419 10.6243 11.1671C10.2807 11.5056 9.92826 11.8808 9.57095 12.2842ZM9.13892 13.7265C9.25851 13.268 9.40421 12.7849 9.57095 12.2842C8.60693 13.3725 7.60714 14.6663 6.64677 16C7.60713 17.3336 8.60692 18.6275 9.57095 19.7158C10.0305 21.0957 10.6499 22.6093 11.3234 24.1087C12.9573 23.9429 14.5765 23.7231 16 23.4315C17.4235 23.7231 19.0427 23.9429 20.6766 24.1087C21.3502 22.6093 21.9696 21.0956 22.4291 19.7157C23.3931 18.6274 24.3929 17.3336 25.3532 16C24.3929 14.6664 23.3931 13.3726 22.4291 12.2843C22.5959 12.7852 22.7417 13.2685 22.8613 13.7271C23.0973 14.4412 23.225 15.2047 23.2253 15.9979C23.2253 15.9986 23.2253 15.9993 23.2253 16C23.2253 16.0007 23.2253 16.0014 23.2253 16.0021C23.225 16.7953 23.0973 17.5588 22.8613 18.2729C22.7417 18.7315 22.5959 19.2148 22.4291 19.7157C22.0719 20.1191 21.7195 20.4942 21.3759 20.8327C20.3656 21.9581 19.0078 22.7645 17.4716 23.0827C17.013 23.2091 16.5195 23.3251 16 23.4315C15.4805 23.3251 14.987 23.2091 14.5283 23.0827C12.9922 22.7645 11.6345 21.9581 10.6243 20.8328C10.2806 20.4943 9.92824 20.1192 9.57095 19.7158C9.4042 19.2151 9.25851 18.732 9.13892 18.2735C8.90263 17.5586 8.77475 16.7943 8.77475 16C8.77475 15.2057 8.90263 14.4414 9.13892 13.7265Z" fill="black"/>
</svg>
