<svg width="18" height="18" viewBox="0 0 18 18" fill="none" xmlns="http://www.w3.org/2000/svg">
<path d="M1.35313 14.2813C1.35073 14.2729 1.34713 14.2645 1.34473 14.2549V14.2585C1.34713 14.2657 1.35073 14.2729 1.35313 14.2813Z" fill="black"/>
<path d="M15.0074 3.84951C14.8813 3.78587 14.7626 3.71863 14.6438 3.64299C14.7246 3.72824 14.7209 3.72824 14.6438 3.64299C14.3036 3.42566 13.9902 3.1627 13.7112 2.86972C13.0147 2.09286 12.7552 1.30518 12.6598 0.754052H12.6634C12.5827 0.296578 12.6169 0 12.6206 0H9.44926V11.9544C9.44926 12.3746 9.45294 12.7805 9.30728 13.1851C9.07717 13.8311 8.58391 14.4158 7.92663 14.6752C7.05883 15.0162 6.35871 15.0246 5.57414 14.6152C5.73816 14.8325 5.73448 14.8289 5.57047 14.6116C5.56802 14.6104 5.5668 14.6092 5.56435 14.608C5.45909 14.5527 5.35383 14.4891 5.24489 14.4195C4.44196 13.8659 4.19839 13.077 4.14698 12.4311C4.13841 12.3218 4.13474 12.2161 4.13597 12.1165C4.24735 11.1823 4.62189 10.6612 5.32567 10.1245C6.33546 9.40044 7.59371 9.80989 7.59371 9.80989V7.37362C7.59493 7.37362 7.59616 7.37362 7.59738 7.37362V6.67601C7.00498 6.59316 6.404 6.60156 5.81527 6.70242C5.42482 6.77326 5.04294 6.88253 4.67574 7.03262C4.09068 7.25355 3.54356 7.57294 3.06131 7.97038C2.51419 8.43146 2.0552 8.98739 1.70392 9.60216C1.5705 9.8279 1.065 10.732 1.0038 12.1981C0.965856 13.0314 1.22167 13.8935 1.34407 14.2502V14.2538L1.36732 14.3174C1.47014 14.5815 1.759 15.2323 2.20575 15.7883C2.58396 16.253 3.02214 16.6624 3.51786 17.007C3.53744 17.0226 3.55825 17.037 3.57905 17.049C3.68187 17.1103 3.7394 17.1463 3.7394 17.1463C5.23143 18.0612 6.8226 17.9988 6.8226 17.9988C7.11758 17.988 8.10411 17.9988 9.22405 17.4813C10.4676 16.9073 11.1751 16.0512 11.1751 16.0512C11.2828 15.924 11.863 15.29 12.2387 14.3294C12.5251 13.5946 12.6206 12.712 12.6206 12.359V6.01801C12.6585 6.04082 13.1714 6.37102 13.1714 6.37102C13.1714 6.37102 13.9095 6.8321 15.0612 7.13228C15.8874 7.34601 17 7.39163 17 7.39163V5.01181V4.98779V4.32259C16.6096 4.36342 15.8176 4.24335 15.0074 3.84951Z" fill="black"/>
</svg>
