<svg width="152" height="31" viewBox="0 0 152 31" fill="none" xmlns="http://www.w3.org/2000/svg">
<path d="M3.46295 29.9781V19.116C3.46295 14.7791 5.93081 11.8746 9.59278 11.8746C12.8567 11.8746 14.4887 13.7845 14.4887 17.5643V29.9781H17.9516V17.2062C17.9516 12.0736 15.245 8.81098 10.7471 8.81098C7.60258 8.81098 5.01531 10.4025 3.74158 13.0683H3.46295L3.02511 9.20885H0V29.9781H3.46295Z" fill="black"/>
<path d="M31.4518 8.81098C25.4413 8.81098 21.6998 12.8295 21.6998 19.5139C21.6998 26.1982 25.4413 30.376 31.4916 30.376C33.8798 30.376 35.9098 29.7791 37.6214 28.5855C39.333 27.3521 40.3679 25.7606 40.8057 23.7314H37.3826C36.7059 26.0789 34.4769 27.5908 31.5712 27.5908C27.75 27.5908 25.2423 25.1638 25.2423 21.5033V20.3096H40.5669C40.6465 19.673 40.6863 18.9569 40.6863 18.1611C40.6863 12.3919 37.1437 8.81098 31.4518 8.81098ZM25.2423 17.2062C25.2423 13.864 27.7898 11.5961 31.4518 11.5961C34.9147 11.5961 37.2631 13.7447 37.2631 16.9675V17.7632H25.2423V17.2062Z" fill="black"/>
<path d="M45.005 29.9781L50.2194 21.742H50.498L55.6725 29.9781H59.4937L52.6076 19.4343L59.2151 9.20885H55.4337L50.498 17.2062H50.2194L45.1245 9.20885H41.3033L48.07 19.5139L41.2635 29.9781H45.005Z" fill="black"/>
<path d="M66.4078 12.0736H70.7465V9.20885H66.4078V2.32556H62.9847V9.20885H59.2033V12.0736H62.9847V27.0736C62.9847 29.0232 63.9798 29.9781 66.0098 29.9781H70.7863V27.1134H66.4078V12.0736Z" fill="black"/>
<path d="M85.9964 29.9781V0.375977H79.9462V29.9781H85.9964Z" fill="black"/>
<path d="M85.9964 29.9781V0.375977H79.9462V29.9781H85.9964Z" fill="url(#paint0_linear_1_300)"/>
<path d="M95.4048 29.9781V18.7182C95.4048 15.4158 97.196 13.2672 100.102 13.2672C102.689 13.2672 104.003 14.7792 104.003 17.8428V29.9781H110.093V17.2062C110.093 11.6757 107.585 8.25396 102.769 8.25396C99.4648 8.25396 97.1164 9.68632 95.7631 12.5908H95.4048L94.6884 8.65184H89.3546V29.9781H95.4048Z" fill="black"/>
<path d="M95.4048 29.9781V18.7182C95.4048 15.4158 97.196 13.2672 100.102 13.2672C102.689 13.2672 104.003 14.7792 104.003 17.8428V29.9781H110.093V17.2062C110.093 11.6757 107.585 8.25396 102.769 8.25396C99.4648 8.25396 97.1164 9.68632 95.7631 12.5908H95.4048L94.6884 8.65184H89.3546V29.9781H95.4048Z" fill="url(#paint1_linear_1_300)"/>
<path d="M134.639 29.9781L126.2 16.9675L134.201 8.65184H126.718L119.314 16.5696V0.375977H113.184V29.9781H119.314V24.1293L122.06 21.2646L127.713 29.9781H134.639Z" fill="black"/>
<path d="M134.639 29.9781L126.2 16.9675L134.201 8.65184H126.718L119.314 16.5696V0.375977H113.184V29.9781H119.314V24.1293L122.06 21.2646L127.713 29.9781H134.639Z" fill="url(#paint2_linear_1_300)"/>
<path d="M133.212 23.2938C133.212 27.551 136.755 30.376 142.686 30.376C148.378 30.376 152 27.7898 152 23.3335C152 19.872 150.01 17.803 146.029 17.2062L142.367 16.6094C141.293 16.4502 140.815 16.4105 140.138 15.8136C139.78 15.4953 139.621 15.0975 139.621 14.5802C139.621 13.307 140.616 12.551 142.367 12.551C144.358 12.551 145.353 13.3468 145.393 14.9781H151.403C151.284 10.88 147.94 8.25396 142.407 8.25396C136.994 8.25396 133.531 10.8004 133.531 15.1373C133.531 18.5192 135.641 20.5484 139.82 21.3044L143.601 21.941C144.676 22.1001 145.671 22.3786 145.83 23.9304C145.83 25.2434 144.756 26.0789 142.726 26.0789C140.536 26.0789 139.223 25.0842 139.223 23.2938H133.212Z" fill="black"/>
<path d="M133.212 23.2938C133.212 27.551 136.755 30.376 142.686 30.376C148.378 30.376 152 27.7898 152 23.3335C152 19.872 150.01 17.803 146.029 17.2062L142.367 16.6094C141.293 16.4502 140.815 16.4105 140.138 15.8136C139.78 15.4953 139.621 15.0975 139.621 14.5802C139.621 13.307 140.616 12.551 142.367 12.551C144.358 12.551 145.353 13.3468 145.393 14.9781H151.403C151.284 10.88 147.94 8.25396 142.407 8.25396C136.994 8.25396 133.531 10.8004 133.531 15.1373C133.531 18.5192 135.641 20.5484 139.82 21.3044L143.601 21.941C144.676 22.1001 145.671 22.3786 145.83 23.9304C145.83 25.2434 144.756 26.0789 142.726 26.0789C140.536 26.0789 139.223 25.0842 139.223 23.2938H133.212Z" fill="url(#paint3_linear_1_300)"/>
<defs>
<linearGradient id="paint0_linear_1_300" x1="75.1261" y1="-6.05849" x2="153.792" y2="-5.56685" gradientUnits="userSpaceOnUse">
<stop stop-color="#309AFC"/>
<stop offset="0.333333" stop-color="#5754FF"/>
<stop offset="0.666667" stop-color="#FF51A4"/>
<stop offset="1" stop-color="#FF7C51"/>
</linearGradient>
<linearGradient id="paint1_linear_1_300" x1="75.1261" y1="-6.05849" x2="153.792" y2="-5.56685" gradientUnits="userSpaceOnUse">
<stop stop-color="#309AFC"/>
<stop offset="0.333333" stop-color="#5754FF"/>
<stop offset="0.666667" stop-color="#FF51A4"/>
<stop offset="1" stop-color="#FF7C51"/>
</linearGradient>
<linearGradient id="paint2_linear_1_300" x1="75.1261" y1="-6.05849" x2="153.792" y2="-5.56685" gradientUnits="userSpaceOnUse">
<stop stop-color="#309AFC"/>
<stop offset="0.333333" stop-color="#5754FF"/>
<stop offset="0.666667" stop-color="#FF51A4"/>
<stop offset="1" stop-color="#FF7C51"/>
</linearGradient>
<linearGradient id="paint3_linear_1_300" x1="75.1261" y1="-6.05849" x2="153.792" y2="-5.56685" gradientUnits="userSpaceOnUse">
<stop stop-color="#309AFC"/>
<stop offset="0.333333" stop-color="#5754FF"/>
<stop offset="0.666667" stop-color="#FF51A4"/>
<stop offset="1" stop-color="#FF7C51"/>
</linearGradient>
</defs>
</svg>
