<svg width="60" height="17" viewBox="0 0 60 17" fill="none" xmlns="http://www.w3.org/2000/svg">
<path fill-rule="evenodd" clip-rule="evenodd" d="M27.172 6.47445H24.803V14.8959H27.1938V16.5H24.5857C23.4773 16.5 22.9339 15.9653 22.9339 14.8736V6.47445H20.8692V4.87037H22.9339V0.5H24.803V4.87037H27.172V6.47445ZM1.89084 16.5V10.4178C1.89084 7.98942 3.23834 6.36306 5.23785 6.36306C7.02002 6.36306 7.91111 7.43245 7.91111 9.54895V16.5H9.80195V9.34844C9.80195 6.47445 8.32405 4.64758 5.86813 4.64758C4.15116 4.64758 2.73846 5.53873 2.04298 7.03143H1.89084L1.65177 4.87037H0V16.5H1.89084ZM12.8994 16.5L15.7465 11.8882H15.8986L18.724 16.5H20.8105L17.0505 10.5961L20.6583 4.87037H18.5936L15.8986 9.34844H15.7465L12.9646 4.87037H10.8781L14.5729 10.6406L10.8564 16.5H12.8994ZM34.153 16.5V0.5H30.9381V16.5H34.153ZM39.1523 16.5V10.3653C39.1523 8.56605 40.1041 7.39547 41.6481 7.39547C43.0229 7.39547 43.7209 8.21921 43.7209 9.88838V16.5H46.957V9.54154C46.957 6.52837 45.6245 4.66411 43.0652 4.66411C41.3097 4.66411 40.0618 5.4445 39.3427 7.02695H39.1523L38.7716 4.88089H35.9374V16.5H39.1523ZM55.5161 9.41147L60 16.5H56.3198L53.3164 11.7526L51.857 13.3134V16.5H48.5998V0.5H51.857V9.1947L55.791 4.88089H59.7673L55.5161 9.41147Z" fill="url(#paint0_linear_37_77)"/>
<defs>
<linearGradient id="paint0_linear_37_77" x1="7.61198" y1="-0.450388" x2="62.3618" y2="10.0706" gradientUnits="userSpaceOnUse">
<stop offset="0.103868" stop-color="#0486FF"/>
<stop offset="0.41706" stop-color="#5754FF"/>
<stop offset="0.666667" stop-color="#FF51A4"/>
<stop offset="0.909725" stop-color="#FF7C51"/>
<stop offset="1" stop-color="#FFAF51"/>
</linearGradient>
</defs>
</svg>
