<svg width="202" height="41" viewBox="0 0 202 41" fill="none" xmlns="http://www.w3.org/2000/svg">
<path fill-rule="evenodd" clip-rule="evenodd" d="M114.285 0.375977V39.8455H106.244V0.375977H114.285ZM126.788 24.8322V39.8455H118.748V11.4105H125.836L126.788 16.6625H127.264C129.063 12.7898 132.184 10.88 136.574 10.88C142.975 10.88 146.307 15.4423 146.307 22.8163V39.8455H138.214V23.6651C138.214 19.5802 136.468 17.5643 133.03 17.5643C129.168 17.5643 126.788 20.429 126.788 24.8322ZM178.928 39.8455L167.713 22.498L178.346 11.4105H168.401L158.562 21.9675V0.375977H150.416V39.8455H158.562V32.0471L162.212 28.2274L169.723 39.8455H178.928ZM189.622 40.376C181.74 40.376 177.032 36.6094 177.032 30.933H185.02C185.02 33.3203 186.766 34.6465 189.675 34.6465C192.373 34.6465 193.801 33.5325 193.801 31.7818C193.589 29.7128 192.267 29.3415 190.839 29.1293L185.813 28.2805C180.259 27.2725 177.456 24.567 177.456 20.0577C177.456 14.2752 182.058 10.88 189.252 10.88C196.604 10.88 201.048 14.3813 201.207 19.8455H193.219C193.166 17.6704 191.844 16.6094 189.199 16.6094C186.871 16.6094 185.549 17.6174 185.549 19.315C185.549 20.0046 185.76 20.5351 186.237 20.9595C187.084 21.7099 187.697 21.7999 188.962 21.9856L189.199 22.0205L194.065 22.8163C199.355 23.6121 202 26.3707 202 30.9861C202 36.9277 197.186 40.376 189.622 40.376ZM94.0183 15.9728H88.2525V36.0258H94.0712V39.8454H87.7235C85.0257 39.8454 83.7033 38.5722 83.7033 35.9728V15.9728H78.678V12.1775L69.9128 25.7871L79.064 39.8454H73.9859L67.1092 28.864H66.7389L59.8093 39.8454H54.837L63.8824 25.8932L54.8899 12.1531H59.968L66.7389 22.8163H67.1092L73.6685 12.1531H78.678H78.6937H83.7033V2.9754H88.2525V12.1531H94.0183V15.9728ZM4.60208 25.3627V39.8454H0V12.1531H4.02021L4.60208 17.299H4.97237C6.66509 13.7446 10.1034 11.6226 14.2823 11.6226C20.2598 11.6226 23.8568 15.9728 23.8568 22.8163V39.8454H19.2547V23.2937C19.2547 18.2539 17.0859 15.7075 12.7483 15.7075C7.88173 15.7075 4.60208 19.5802 4.60208 25.3627ZM28.8378 25.8932C28.8378 16.9807 33.8102 11.6226 41.7977 11.6226C49.3621 11.6226 54.0699 16.3972 54.0699 24.0895C54.0699 25.1505 54.017 26.1054 53.9113 26.9542H33.5457V28.5457C33.5457 33.4263 36.8783 36.6624 41.9564 36.6624C45.8179 36.6624 48.7802 34.6465 49.6795 31.5165H54.2286C53.6468 34.2221 52.2714 36.3441 49.9968 37.9887C47.7222 39.5802 45.0245 40.3759 41.8506 40.3759C33.8102 40.3759 28.8378 34.8056 28.8378 25.8932ZM41.7977 15.3361C36.9311 15.3361 33.5457 18.36 33.5457 22.8163V23.559H49.5208V22.4979C49.5208 18.2009 46.3998 15.3361 41.7977 15.3361Z" fill="url(#paint0_linear_1_300)"/>
<defs>
<linearGradient id="paint0_linear_1_300" x1="19.5" y1="-2.00002" x2="204.039" y2="47.4145" gradientUnits="userSpaceOnUse">
<stop offset="0.103868" stop-color="#0486FF"/>
<stop offset="0.41706" stop-color="#5754FF"/>
<stop offset="0.666667" stop-color="#FF51A4"/>
<stop offset="0.909725" stop-color="#FF7C51"/>
<stop offset="1" stop-color="#FFAF51"/>
</linearGradient>
</defs>
</svg>
