<svg width="18" height="18" viewBox="0 0 18 18" fill="none" xmlns="http://www.w3.org/2000/svg">
<path d="M8.74003 5.75705L8.77905 6.40043L8.12875 6.32165C5.76166 6.01965 3.6937 4.99548 1.93789 3.27541L1.0795 2.42193L0.858396 3.05219C0.39018 4.45714 0.689318 5.94087 1.66477 6.93878C2.18501 7.49025 2.06795 7.56904 1.17054 7.24078C0.858396 7.13574 0.58527 7.05695 0.559258 7.09634C0.468216 7.18826 0.78036 8.38312 1.02747 8.85581C1.36563 9.51233 2.05495 10.1557 2.80929 10.5365L3.44659 10.8385L2.69224 10.8516C1.9639 10.8516 1.93789 10.8648 2.01593 11.1405C2.27605 11.994 3.30352 12.9 4.44805 13.2939L5.25442 13.5696L4.5521 13.9898C3.51162 14.5938 2.28905 14.9352 1.06649 14.9614C0.481222 14.9746 0 15.0271 0 15.0665C0 15.1978 1.58673 15.9331 2.51016 16.2219C5.28043 17.0754 8.57095 16.7078 11.0421 15.2503C12.7979 14.213 14.5537 12.1515 15.3731 10.1557C15.8153 9.09216 16.2575 7.14887 16.2575 6.21661C16.2575 5.61261 16.2965 5.53383 17.0248 4.81166C17.454 4.39149 17.8572 3.93193 17.9353 3.80062C18.0653 3.55114 18.0523 3.55114 17.389 3.77436C16.2835 4.16827 16.1274 4.11575 16.6737 3.52488C17.0769 3.10471 17.5581 2.34315 17.5581 2.11993C17.5581 2.08054 17.363 2.14619 17.1419 2.26437C16.9078 2.39567 16.3876 2.59263 15.9974 2.7108L15.295 2.93402L14.6578 2.50071C14.3066 2.26437 13.8124 2.00176 13.5522 1.92298C12.8889 1.73915 11.8745 1.76541 11.2762 1.9755C9.65045 2.56637 8.62297 4.08949 8.74003 5.75705Z" fill="#000000"/>
</svg>
