<svg width="24" height="24" viewBox="0 0 24 24" fill="none" xmlns="http://www.w3.org/2000/svg">
<path fill-rule="evenodd" clip-rule="evenodd" d="M14.5606 2.38023C15.6073 1.95798 16.7542 1.88511 17.8434 2.17316C18.7222 2.40556 19.5238 2.86227 20.1816 3.49326C21.0148 3.17251 21.8062 2.73561 22.5345 2.19258C22.8429 1.96267 23.262 1.9496 23.5841 2.15986C23.9062 2.37011 24.0629 2.75901 23.9765 3.13384C23.6332 4.62404 22.9383 6.00066 21.9547 7.13569C21.9742 7.32875 21.9843 7.52279 21.9849 7.71707L21.9849 7.71994C21.9849 14.1388 19.0653 18.856 14.8426 21.2315C10.6347 23.5988 5.24859 23.5732 0.45286 20.7572C0.089782 20.544 -0.0815072 20.111 0.0374718 19.7071C0.156451 19.3032 0.535135 19.0322 0.955808 19.0499C2.75298 19.1254 4.53405 18.7234 6.13966 17.8879C4.50748 16.875 3.35541 15.6575 2.57061 14.3478C1.57702 12.6896 1.20226 10.9347 1.1344 9.35669C1.06665 7.78135 1.30346 6.36035 1.5534 5.33887C1.67886 4.82612 1.80897 4.40863 1.90904 4.11609C1.96357 3.95668 2.02109 3.79822 2.08477 3.64223L2.08599 3.63931C2.21549 3.33013 2.51221 3.11122 2.84605 3.07967C3.18253 3.04788 3.50922 3.20371 3.69626 3.48521C4.63224 4.89389 5.87966 6.03065 7.32368 6.79886C8.50005 7.42469 9.77863 7.79099 11.0828 7.88131C11.0828 6.68433 11.3546 5.52873 12.0071 4.51275C12.6256 3.54972 13.5147 2.80216 14.5606 2.38023ZM3.29441 5.94646C3.08875 6.8368 2.91248 8.00808 2.96709 9.27787C3.02517 10.6283 3.34308 12.0681 4.14413 13.4049C4.94058 14.7341 6.2448 16.0127 8.3599 17.0063C8.65437 17.1446 8.85352 17.4286 8.88328 17.7526C8.91304 18.0765 8.76894 18.392 8.5046 18.5817C7.24555 19.485 5.84896 20.1362 4.38475 20.5129C7.75815 21.5657 11.173 21.1912 13.9432 19.6328C17.5284 17.6158 20.15 13.5482 20.1505 7.7216C20.1497 7.47905 20.1276 7.23723 20.0846 6.9993C20.0322 6.71004 20.1217 6.41323 20.3253 6.2011C20.6622 5.84989 20.9631 5.46385 21.224 5.04966C20.888 5.19302 20.5455 5.32038 20.1973 5.43119C19.8399 5.54494 19.4492 5.42961 19.2109 5.13997C18.7224 4.54635 18.0798 4.13313 17.3744 3.94658C16.6696 3.76019 15.928 3.80666 15.2469 4.0814C14.5651 4.35646 13.9707 4.84991 13.5505 5.50407C13.1301 6.15876 12.907 6.93949 12.9171 7.74025L12.9173 7.75188L12.9172 8.81678C12.9172 9.31354 12.5217 9.72002 12.0251 9.73363C10.0939 9.78656 8.18262 9.33363 6.46212 8.41833C5.27487 7.78672 4.20499 6.9491 3.29441 5.94646Z" fill="black"/>
</svg>
