<svg width="194" height="32" viewBox="0 0 194 32" fill="none" xmlns="http://www.w3.org/2000/svg">
<path fill-rule="evenodd" clip-rule="evenodd" d="M27.7434 5.03298V0H22.6091V5.03298H27.7434ZM27.7434 25.1311V7.0259H22.6091V25.1311H27.7434ZM149.951 14.2707V24.5056H144.817V6.40034H149.917V9.7444H150.255C151.269 7.27858 152.991 6.06256 155.423 6.06256C158.058 6.06256 159.781 7.31236 160.625 9.77818H160.997C162.044 7.31236 163.936 6.06256 166.638 6.06256C170.556 6.06256 172.583 8.9675 172.583 13.5951V24.5056H167.415V14.1694C167.415 11.5684 166.469 10.2511 164.611 10.2511C162.449 10.2511 161.267 11.8724 161.267 14.4058V24.5056H156.099V14.1018C156.099 11.5347 155.153 10.2511 153.295 10.2511C151.235 10.2511 149.951 11.8387 149.951 14.2707ZM133.124 7.88659C133.664 6.9408 134.914 6.40034 136.806 6.40034H142.953V10.5551H137.582V24.5056H132.448V10.7578C132.448 9.57551 132.583 8.83239 133.124 7.88659ZM98.3505 25.0209H105.053L111.471 6.36988H105.62L103.457 14.1643L101.79 20.4277H101.577L99.9108 14.1295L97.7477 6.36988H91.932L98.3505 25.0209ZM6.93322 25.131H13.3173L19.4312 7.0258H13.8578L11.7973 14.5922L10.2097 20.6723H10.0071L8.41947 14.5584L6.35899 7.0258H0.819336L6.93322 25.131ZM37.829 5.03298H32.6947V0H37.829V5.03298ZM29.0466 27.9804H32.6947L32.6947 7.0259H37.829L37.829 27.6426C37.829 28.4533 37.829 28.7911 37.525 29.7368C37.1872 31.0204 36.0725 31.8649 33.4716 32H29.0466V27.9804ZM54.1686 6.2474V8.34433C52.8891 6.74498 50.9699 5.74982 48.3754 5.74982C43.6484 5.74982 39.7388 9.83706 39.7388 15.1327C39.7388 20.4283 43.6484 24.5156 48.3754 24.5156C50.9699 24.5156 52.8891 23.5204 54.1686 21.9211V24.018H58.7534V6.2474H54.1686ZM49.2283 20.144C46.4206 20.144 44.3237 18.1182 44.3237 15.1327C44.3237 12.1472 46.4206 10.1214 49.2283 10.1214C52.0716 10.1214 54.1686 12.1472 54.1686 15.1327C54.1686 18.1182 52.0716 20.144 49.2283 20.144ZM188.596 8.65707V6.56014H193.18V24.3307H188.596V22.2338C187.316 23.8332 185.397 24.8283 182.802 24.8283C178.075 24.8283 174.166 20.7411 174.166 15.4454C174.166 10.1498 178.075 6.06256 182.802 6.06256C185.397 6.06256 187.316 7.05771 188.596 8.65707ZM178.751 15.4454C178.751 18.4309 180.848 20.4568 183.655 20.4568C186.499 20.4568 188.596 18.4309 188.596 15.4454C188.596 12.46 186.499 10.4341 183.655 10.4341C180.848 10.4341 178.751 12.46 178.751 15.4454ZM116.369 17.3583H130.046C130.155 16.7416 130.228 16.1248 130.228 15.4355C130.228 10.1022 126.418 5.85742 121.049 5.85742C115.353 5.85742 111.471 10.0297 111.471 15.4355C111.471 20.8413 115.317 25.0135 121.412 25.0135C124.895 25.0135 127.616 23.5986 129.321 21.1315L125.548 18.9547C124.75 20.0068 123.298 20.7687 121.484 20.7687C119.017 20.7687 117.022 19.7528 116.369 17.3583ZM116.296 13.7303C116.84 11.4083 118.546 10.066 121.049 10.066C123.008 10.066 124.967 11.1181 125.548 13.7303H116.296ZM64.6692 27.9403V32H76.1838C77.414 32 78.3982 31.6186 79.1363 30.8559C79.8744 30.1178 80.2435 29.1213 80.2435 27.8665V6.20017H75.5933V15.5005C75.5933 17.1982 75.1997 18.5268 74.4124 19.4863C73.625 20.4213 72.5178 20.8888 71.0908 20.8888C69.836 20.8888 68.8642 20.5443 68.1752 19.8554C67.5109 19.1665 67.1788 18.1331 67.1788 16.7553V6.20017H62.5286V17.1243C62.5286 18.6252 62.8239 19.9538 63.4144 21.1102C64.0049 22.2666 64.8291 23.1769 65.8871 23.8412C66.9696 24.4809 68.2244 24.8008 69.6515 24.8008C70.7587 24.8008 71.669 24.6655 72.3825 24.3948C73.096 24.1242 73.6619 23.7797 74.0802 23.3615C74.4985 22.9432 74.806 22.5249 75.0028 22.1067H75.6672V26.8331C75.6672 27.5712 75.3227 27.9403 74.6338 27.9403H64.6692Z" fill="#1A1A1A"/>
</svg>
