<svg width="18" height="18" viewBox="0 0 18 18" fill="none" xmlns="http://www.w3.org/2000/svg">
<g clip-path="url(#clip0)">
<path d="M17.622 5.094C18 6.534 18 9.54 18 9.54C18 9.54 18 12.546 17.622 13.986C17.424 14.778 16.812 15.408 16.038 15.624C14.634 16.02 9 16.02 9 16.02C9 16.02 3.366 16.02 1.962 15.624C1.188 15.408 0.576 14.778 0.378 13.986C0 12.546 0 9.54 0 9.54C0 9.54 0 6.534 0.378 5.094C0.576 4.302 1.188 3.672 1.962 3.456C3.366 3.078 9 3.078 9 3.078C9 3.078 14.634 3.078 16.038 3.456C16.812 3.672 17.424 4.302 17.622 5.094V5.094ZM7.308 12.636L11.808 9.828L7.308 7.02V12.636Z" fill="black"/>
</g>
<defs>
<clipPath id="clip0">
<rect width="18" height="18" fill="white"/>
</clipPath>
</defs>
</svg>
